<svg width="12" height="12" viewBox="0 0 12 12" fill="none" xmlns="http://www.w3.org/2000/svg">
<path d="M11.0003 6.83073H6.83366V10.9974C6.83366 11.4557 6.45866 11.8307 6.00033 11.8307C5.54199 11.8307 5.16699 11.4557 5.16699 10.9974V6.83073H1.00033C0.541992 6.83073 0.166992 6.45573 0.166992 5.9974C0.166992 5.53906 0.541992 5.16406 1.00033 5.16406H5.16699V0.997396C5.16699 0.539062 5.54199 0.164062 6.00033 0.164062C6.45866 0.164062 6.83366 0.539062 6.83366 0.997396V5.16406H11.0003C11.4587 5.16406 11.8337 5.53906 11.8337 5.9974C11.8337 6.45573 11.4587 6.83073 11.0003 6.83073Z" fill="#847C3D"/>
</svg>
