<svg width="21" height="20" viewBox="0 0 21 20" fill="none" xmlns="http://www.w3.org/2000/svg">
<path d="M10.5001 12.4999C11.8808 12.4999 13.0001 11.3807 13.0001 9.99997C13.0001 8.61927 11.8808 7.5 10.5001 7.5C9.11943 7.5 8.00016 8.61927 8.00016 9.99997C8.00016 11.3807 9.11943 12.4999 10.5001 12.4999Z" fill="#BBB157"/>
<path d="M17.1667 3.33071H14.5251L13.4918 2.20572C13.1834 1.86406 12.7334 1.66406 12.2668 1.66406H8.73349C8.26683 1.66406 7.81683 1.86406 7.50017 2.20572L6.47518 3.33071H3.83355C2.91689 3.33071 2.1669 4.0807 2.1669 4.99736V14.9972C2.1669 15.9139 2.91689 16.6639 3.83355 16.6639H17.1667C18.0834 16.6639 18.8334 15.9139 18.8334 14.9972V4.99736C18.8334 4.0807 18.0834 3.33071 17.1667 3.33071ZM10.5001 14.1639C8.20016 14.1639 6.33352 12.2973 6.33352 9.99729C6.33352 7.69732 8.20016 5.83068 10.5001 5.83068C12.8001 5.83068 14.6667 7.69732 14.6667 9.99729C14.6667 12.2973 12.8001 14.1639 10.5001 14.1639Z" fill="#BBB157"/>
</svg>
