<svg width="20" height="20" viewBox="0 0 20 20" fill="none" xmlns="http://www.w3.org/2000/svg">
<path d="M10 12.5C11.3807 12.5 12.5 11.3807 12.5 10C12.5 8.61929 11.3807 7.5 10 7.5C8.61929 7.5 7.5 8.61929 7.5 10C7.5 11.3807 8.61929 12.5 10 12.5Z" fill="#847C3D"/>
<path d="M16.667 3.33073H14.0253L12.992 2.20573C12.6837 1.86406 12.2337 1.66406 11.767 1.66406H8.23366C7.76699 1.66406 7.31699 1.86406 7.00033 2.20573L5.97533 3.33073H3.33366C2.41699 3.33073 1.66699 4.08073 1.66699 4.9974V14.9974C1.66699 15.9141 2.41699 16.6641 3.33366 16.6641H16.667C17.5837 16.6641 18.3337 15.9141 18.3337 14.9974V4.9974C18.3337 4.08073 17.5837 3.33073 16.667 3.33073ZM10.0003 14.1641C7.70033 14.1641 5.83366 12.2974 5.83366 9.99739C5.83366 7.6974 7.70033 5.83073 10.0003 5.83073C12.3003 5.83073 14.167 7.6974 14.167 9.99739C14.167 12.2974 12.3003 14.1641 10.0003 14.1641Z" fill="#847C3D"/>
</svg>
