<svg width="20" height="14" viewBox="0 0 20 14" fill="none" xmlns="http://www.w3.org/2000/svg">
<path d="M20 7.00061C20 10.4169 17.2361 13.1809 13.8198 13.1809C12.3777 13.1809 11.0558 12.6831 10.0086 11.859C11.4507 10.726 12.3606 8.97487 12.3606 7.00061C12.3606 5.02635 11.4335 3.27527 10.0086 2.14221C11.0558 1.31817 12.3777 0.820312 13.8198 0.820312C17.2361 0.820312 20 3.60145 20 7.00061Z" fill="#F79E1B"/>
<path d="M10.0086 2.14221C10.0086 2.14221 10.0086 2.14221 10.0086 2.14221C11.4335 3.27527 12.3606 5.02635 12.3606 7.00061C12.3606 8.97487 11.4507 10.726 10.0086 11.859L9.99138 11.859C8.56651 10.7431 7.63949 8.97488 7.63949 7.00064C7.63949 5.02638 8.56653 3.2753 9.99143 2.14225C9.99141 2.14223 9.99144 2.14226 9.99143 2.14225L10.0086 2.14221Z" fill="#FF5F00"/>
<path d="M7.63949 7.00064C7.63949 5.02638 8.56653 3.2753 9.99143 2.14225C8.94421 1.31821 7.62233 0.820339 6.18027 0.820339C2.76395 0.820339 0 3.5843 0 7.00064C0 10.417 2.76395 13.1809 6.18027 13.1809C7.62233 13.1809 8.94417 12.6831 9.99138 11.859C8.56651 10.7431 7.63949 8.97488 7.63949 7.00064Z" fill="#EB001B"/>
</svg>
