<svg width="18" height="18" viewBox="0 0 18 18" fill="none" xmlns="http://www.w3.org/2000/svg">
<path d="M7.43723 13.4336C7.23011 13.4327 7.03154 13.351 6.88384 13.2058L3.23801 9.55995C3.09124 9.41318 3.00879 9.21412 3.00879 9.00656C3.00879 8.799 3.09124 8.59995 3.23801 8.45318C3.38478 8.30641 3.58383 8.22396 3.79139 8.22396C3.99895 8.22396 4.19801 8.30641 4.34478 8.45318L7.43723 11.5456L14.1755 4.80734C14.2482 4.73467 14.3345 4.67703 14.4294 4.6377C14.5244 4.59837 14.6261 4.57812 14.7289 4.57812C14.8317 4.57813 14.9334 4.59837 15.0284 4.6377C15.1233 4.67703 15.2096 4.73467 15.2823 4.80734C15.355 4.88002 15.4126 4.96629 15.4519 5.06124C15.4913 5.15619 15.5115 5.25796 15.5115 5.36073C15.5115 5.4635 15.4913 5.56527 15.4519 5.66022C15.4126 5.75517 15.355 5.84144 15.2823 5.91412L7.99061 13.2058C7.84292 13.351 7.64434 13.4327 7.43723 13.4336Z" fill="white"/>
</svg>
