<svg width="32" height="33" viewBox="0 0 32 33" fill="none" xmlns="http://www.w3.org/2000/svg">
<path d="M16.0512 31.3859C23.01 31.3859 28.6512 25.7223 28.6512 18.7359C28.6512 11.7495 23.01 6.08594 16.0512 6.08594C9.09238 6.08594 3.45117 11.7495 3.45117 18.7359C3.45117 25.7223 9.09238 31.3859 16.0512 31.3859Z" fill="#428BC1"/>
<path d="M16.05 28.5906C21.4624 28.5906 25.85 24.1806 25.85 18.7406C25.85 13.3006 21.4624 8.89062 16.05 8.89062C10.6376 8.89062 6.25 13.3006 6.25 18.7406C6.25 24.1806 10.6376 28.5906 16.05 28.5906Z" fill="white"/>
<path d="M5.50039 24.9875L4.40039 31.8375H5.35039C5.95039 31.8375 6.15039 31.1375 6.55039 30.2875C7.05039 29.1875 8.25039 26.3375 8.25039 26.3375L5.50039 24.9875ZM26.5504 24.9875L27.7004 31.8375H26.7504C26.1504 31.8375 25.9504 31.1375 25.5504 30.2875C25.0504 29.1875 23.8504 26.3375 23.8504 26.3375L26.5504 24.9875ZM6.65039 5.9375L9.60039 8.8875L8.05039 10.4875L5.10039 7.4875L6.65039 5.9375ZM25.4504 5.9375L22.5004 8.8875L24.0504 10.4875L27.0004 7.4875L25.4504 5.9375Z" fill="#428BC1"/>
<path d="M2.85 12.6359L11.65 3.68594C10.55 2.53594 9 1.83594 7.25 1.83594C3.8 1.83594 1 4.68594 1 8.13594C1 9.88594 1.7 11.4859 2.85 12.6359ZM20.25 3.73594L29.15 12.5859C30.3 11.4359 31 9.88594 31 8.13594C31 4.68594 28.2 1.83594 24.7 1.83594C22.95 1.88594 21.4 2.58594 20.25 3.73594Z" fill="#B0B8B8"/>
<path d="M10.3008 24.1406L15.4508 18.8906L16.0508 19.4906L10.9008 24.6906L10.3008 24.1406Z" fill="#ED4C5C"/>
<path d="M16.0492 20.5906C17.0709 20.5906 17.8992 19.7624 17.8992 18.7406C17.8992 17.7189 17.0709 16.8906 16.0492 16.8906C15.0275 16.8906 14.1992 17.7189 14.1992 18.7406C14.1992 19.7624 15.0275 20.5906 16.0492 20.5906Z" fill="#428BC1"/>
<path d="M15.0996 11.6875H16.9496V19.1875H15.0996V11.6875ZM16.9496 17.7875H20.6996V19.6375H16.9496V17.7875Z" fill="#428BC1"/>
</svg>
