<svg width="20" height="20" viewBox="0 0 20 20" fill="none" xmlns="http://www.w3.org/2000/svg">
<path d="M4.99967 8.33594C4.08301 8.33594 3.33301 9.08594 3.33301 10.0026C3.33301 10.9193 4.08301 11.6693 4.99967 11.6693C5.91634 11.6693 6.66634 10.9193 6.66634 10.0026C6.66634 9.08594 5.91634 8.33594 4.99967 8.33594ZM14.9997 8.33594C14.083 8.33594 13.333 9.08594 13.333 10.0026C13.333 10.9193 14.083 11.6693 14.9997 11.6693C15.9163 11.6693 16.6663 10.9193 16.6663 10.0026C16.6663 9.08594 15.9163 8.33594 14.9997 8.33594ZM9.99967 8.33594C9.08301 8.33594 8.33301 9.08594 8.33301 10.0026C8.33301 10.9193 9.08301 11.6693 9.99967 11.6693C10.9163 11.6693 11.6663 10.9193 11.6663 10.0026C11.6663 9.08594 10.9163 8.33594 9.99967 8.33594Z" fill="#686232"/>
</svg>
