<svg width="18" height="14" viewBox="0 0 18 14" fill="none" xmlns="http://www.w3.org/2000/svg">
<path d="M15.667 0.335938H2.33366C1.41699 0.335938 0.666992 1.08594 0.666992 2.0026V12.0026C0.666992 12.9193 1.41699 13.6693 2.33366 13.6693H15.667C16.5837 13.6693 17.3337 12.9193 17.3337 12.0026V2.0026C17.3337 1.08594 16.5837 0.335938 15.667 0.335938ZM15.3337 3.8776L9.88366 7.28594C9.34199 7.6276 8.65866 7.6276 8.11699 7.28594L2.66699 3.8776C2.45866 3.74427 2.33366 3.51927 2.33366 3.2776C2.33366 2.71927 2.94199 2.38594 3.41699 2.6776L9.00033 6.16927L14.5837 2.6776C15.0587 2.38594 15.667 2.71927 15.667 3.2776C15.667 3.51927 15.542 3.74427 15.3337 3.8776Z" fill="#878D96"/>
</svg>
