<svg width="101" height="100" viewBox="0 0 101 100" fill="none" xmlns="http://www.w3.org/2000/svg">
<g clip-path="url(#clip0_3373_56813)">
<path d="M99.5193 35.2313C99.2224 34.9219 98.8599 34.601 98.4245 34.2729L95.6036 32.1375L56.4484 2.5125C53.1776 0.0375 47.8286 0.0375 44.5568 2.5125L5.40156 32.1375L2.57969 34.2729C2.14531 34.601 1.78281 34.9219 1.48698 35.2313C1.06719 35.9323 0.768229 36.7104 0.617188 37.5417C0.953646 38.301 2.13802 38.7698 4.1151 38.7698H96.8901C98.8693 38.7698 100.052 38.301 100.389 37.5417C100.239 36.7104 99.938 35.9323 99.5193 35.2313Z" fill="#FA9A23"/>
<mask id="mask0_3373_56813" style="mask-type:luminance" maskUnits="userSpaceOnUse" x="1" y="37" width="100" height="23">
<path d="M1.83398 37.375H100.501V59.2031H1.83398V37.375Z" fill="white"/>
</mask>
<g mask="url(#mask0_3373_56813)">
<path d="M100.474 38.1542C100.455 37.9479 100.425 37.7469 100.39 37.5469C100.052 38.3062 98.8699 38.775 96.8908 38.775H4.11576C3.2668 38.775 2.56576 38.6896 2.01367 38.5302L51.5178 59.2083L100.474 38.1542Z" fill="#FA9A23"/>
</g>
<path d="M88.5546 70.1938C88.5546 72.4927 86.6911 74.3594 84.389 74.3594H14.9421C12.639 74.3594 10.7744 72.4927 10.7744 70.1938V12.9167C10.7744 10.6156 12.639 8.75 14.9421 8.75H84.389C86.6911 8.75 88.5546 10.6156 88.5546 12.9167V70.1938Z" fill="#016DB2"/>
<path d="M55.5514 33.5125C55.0035 33.3771 54.2504 33.2396 53.4316 33.2396C48.916 33.2396 45.3587 37.6833 45.3587 42.949C45.3587 45.5479 46.5223 47.1885 48.7785 47.1885C51.3108 47.1885 53.9764 43.975 54.5931 40.0094L55.5514 33.5125ZM61.6379 61.7521C57.5337 63.599 53.9764 64.2156 49.0525 64.2156C37.6973 64.2156 27.7129 56.0771 27.7129 42.6771C27.7129 28.726 37.9046 16.625 53.2931 16.625C65.3993 16.625 74.0171 24.8979 74.0171 36.3844C74.0171 46.4365 68.4087 52.726 61.0223 52.726C57.8066 52.726 55.4827 51.0177 55.14 47.4625H55.0035C52.815 50.8802 49.8046 52.726 46.1108 52.726C41.7348 52.726 38.4504 49.3771 38.4504 43.7698C38.4504 35.3594 44.6754 27.8375 54.5233 27.8375C57.5337 27.8375 60.9535 28.5896 62.6629 29.4802L60.6119 42.1958C59.9275 46.2323 60.4066 48.0781 62.3212 48.1458C65.2639 48.2823 68.9566 44.5229 68.9566 36.5906C68.9566 27.6333 63.2108 20.7958 52.6108 20.7958C42.0764 20.7958 32.9796 28.9323 32.9796 42.0615C32.9796 53.5469 40.2296 59.976 50.4212 59.976C53.9098 59.976 57.6691 59.224 60.4066 57.8563L61.6379 61.7521Z" fill="white"/>
<path d="M2.01348 38.5271C1.71764 38.4406 1.46556 38.3365 1.25723 38.2115L0.563477 37.9219C0.52806 38.2021 0.500977 38.4833 0.500977 38.7719V93.6208C0.500977 95.6938 1.42702 97.5583 2.88119 98.8333L44.6906 56.3542L2.01348 38.5271Z" fill="#FDC00F"/>
<mask id="mask1_3373_56813" style="mask-type:luminance" maskUnits="userSpaceOnUse" x="57" y="38" width="44" height="61">
<path d="M57.3438 38.125H100.501V98.3438H57.3438V38.125Z" fill="white"/>
</mask>
<g mask="url(#mask1_3373_56813)">
<path d="M100.505 93.6104V38.7615C100.505 38.5531 100.493 38.3448 100.474 38.1406L57.4365 56.651L98.7376 98.2135C99.8334 96.9854 100.505 95.375 100.505 93.6104Z" fill="#FDC00F"/>
</g>
<mask id="mask2_3373_56813" style="mask-type:luminance" maskUnits="userSpaceOnUse" x="2" y="52" width="97" height="48">
<path d="M2.6875 52.8906H98.8833V100.001H2.6875V52.8906Z" fill="white"/>
</mask>
<g mask="url(#mask2_3373_56813)">
<path d="M57.4361 56.6561L55.7736 54.9874C53.084 52.277 48.6882 52.2863 46.009 55.0103L44.6902 56.3488L2.88086 98.828C4.10586 99.9009 5.69961 100.558 7.44544 100.558H93.559C95.6142 100.558 97.4663 99.6468 98.7371 98.2186L57.4361 56.6561Z" fill="#FA9A23"/>
</g>
<mask id="mask3_3373_56813" style="mask-type:luminance" maskUnits="userSpaceOnUse" x="2" y="55" width="97" height="45">
<path d="M2.6875 55.2031H98.8833V100.003H2.6875V55.2031Z" fill="white"/>
</mask>
<g mask="url(#mask3_3373_56813)">
<path d="M57.4361 58.7981L55.7736 57.2074C53.084 54.6293 48.6882 54.6418 46.009 57.2293L44.6902 58.5054L2.88086 98.9189C4.10586 99.9387 5.69961 100.565 7.44544 100.565H93.559C95.6142 100.565 97.4663 99.6981 98.7371 98.3376L57.4361 58.7981Z" fill="#FDC00F"/>
</g>
</g>
<defs>
<clipPath id="clip0_3373_56813">
<rect width="100" height="100" fill="white" transform="translate(0.5)"/>
</clipPath>
</defs>
</svg>
