<svg width="29" height="28" viewBox="0 0 29 28" fill="none" xmlns="http://www.w3.org/2000/svg">
<path d="M14.5 2.33594C8.06001 2.33594 2.83334 7.5626 2.83334 14.0026C2.83334 20.4426 8.06001 25.6693 14.5 25.6693C20.94 25.6693 26.1667 20.4426 26.1667 14.0026C26.1667 7.5626 20.94 2.33594 14.5 2.33594ZM14.5 15.1693C13.8583 15.1693 13.3333 14.6443 13.3333 14.0026V9.33594C13.3333 8.69427 13.8583 8.16927 14.5 8.16927C15.1417 8.16927 15.6667 8.69427 15.6667 9.33594V14.0026C15.6667 14.6443 15.1417 15.1693 14.5 15.1693ZM15.6667 19.8359H13.3333V17.5026H15.6667V19.8359Z" fill="#CB3A31"/>
</svg>
