<svg width="16" height="16" viewBox="0 0 16 16" fill="none" xmlns="http://www.w3.org/2000/svg">
<path fill-rule="evenodd" clip-rule="evenodd" d="M2.16669 7.16667C2.16669 6.51006 2.29602 5.85988 2.54729 5.25325C2.79857 4.64662 3.16686 4.09543 3.63116 3.63113C4.09545 3.16684 4.64664 2.79854 5.25327 2.54727C5.8599 2.296 6.51008 2.16667 7.16669 2.16667C7.8233 2.16667 8.47348 2.296 9.08011 2.54727C9.68673 2.79854 10.2379 3.16684 10.7022 3.63113C11.1665 4.09543 11.5348 4.64662 11.7861 5.25325C12.0374 5.85988 12.1667 6.51006 12.1667 7.16667C12.1667 8.49275 11.6399 9.76452 10.7022 10.7022C9.76454 11.6399 8.49277 12.1667 7.16669 12.1667C5.84061 12.1667 4.56884 11.6399 3.63116 10.7022C2.69347 9.76452 2.16669 8.49275 2.16669 7.16667ZM7.16669 0.5C6.10574 0.500152 5.06015 0.753515 4.11681 1.23903C3.17347 1.72455 2.35963 2.4282 1.74293 3.2915C1.12622 4.15481 0.724468 5.15283 0.571048 6.20263C0.417629 7.25243 0.516977 8.32368 0.860836 9.32736C1.2047 10.331 1.78313 11.2382 2.54808 11.9733C3.31302 12.7085 4.24238 13.2505 5.25892 13.5542C6.27546 13.858 7.34981 13.9148 8.39269 13.7198C9.43558 13.5249 10.4169 13.0838 11.255 12.4333L14.0775 15.2558C14.2347 15.4076 14.4452 15.4916 14.6637 15.4897C14.8822 15.4878 15.0912 15.4002 15.2457 15.2457C15.4002 15.0912 15.4879 14.8822 15.4898 14.6637C15.4917 14.4452 15.4077 14.2347 15.2559 14.0775L12.4334 11.255C13.1984 10.2695 13.6716 9.08919 13.7992 7.84814C13.9267 6.60709 13.7034 5.35516 13.1548 4.23471C12.6061 3.11425 11.754 2.17024 10.6954 1.51002C9.63686 0.849799 8.41427 0.499861 7.16669 0.5ZM7.16669 10.5C8.05074 10.5 8.89859 10.1488 9.52371 9.52369C10.1488 8.89857 10.5 8.05072 10.5 7.16667C10.5 6.28261 10.1488 5.43476 9.52371 4.80964C8.89859 4.18452 8.05074 3.83333 7.16669 3.83333C6.28263 3.83333 5.43479 4.18452 4.80967 4.80964C4.18455 5.43476 3.83336 6.28261 3.83336 7.16667C3.83336 8.05072 4.18455 8.89857 4.80967 9.52369C5.43479 10.1488 6.28263 10.5 7.16669 10.5Z" fill="#847C3D"/>
</svg>
