<svg width="20" height="20" viewBox="0 0 20 20" fill="none" xmlns="http://www.w3.org/2000/svg">
<path d="M9.85819 7.5L12.4999 10.1333V10C12.4999 9.33696 12.2365 8.70107 11.7676 8.23223C11.2988 7.76339 10.6629 7.5 9.99986 7.5H9.85819ZM6.27486 8.16667L7.56652 9.45833C7.52486 9.63333 7.49986 9.80833 7.49986 10C7.49986 10.663 7.76325 11.2989 8.23209 11.7678C8.70093 12.2366 9.33682 12.5 9.99986 12.5C10.1832 12.5 10.3665 12.475 10.5415 12.4333L11.8332 13.725C11.2749 14 10.6582 14.1667 9.99986 14.1667C8.89479 14.1667 7.83498 13.7277 7.05358 12.9463C6.27218 12.1649 5.83319 11.1051 5.83319 10C5.83319 9.34167 5.99986 8.725 6.27486 8.16667ZM1.66652 3.55833L3.56652 5.45833L3.94152 5.83333C2.56652 6.91667 1.48319 8.33333 0.833191 10C2.27486 13.6583 5.83319 16.25 9.99986 16.25C11.2915 16.25 12.5249 16 13.6499 15.55L14.0082 15.9L16.4415 18.3333L17.4999 17.275L2.72486 2.5M9.99986 5.83333C11.1049 5.83333 12.1647 6.27232 12.9461 7.05372C13.7275 7.83512 14.1665 8.89493 14.1665 10C14.1665 10.5333 14.0582 11.05 13.8665 11.5167L16.3082 13.9583C17.5582 12.9167 18.5582 11.55 19.1665 10C17.7249 6.34167 14.1665 3.75 9.99986 3.75C8.83319 3.75 7.71652 3.95833 6.66652 4.33333L8.47486 6.125C8.94986 5.94167 9.45819 5.83333 9.99986 5.83333Z" fill="#878D96"/>
</svg>
