<svg width="20" height="20" viewBox="0 0 20 20" fill="none" xmlns="http://www.w3.org/2000/svg">
<g clip-path="url(#clip0_6598_46505)">
<path d="M18.2497 4.16927H14.9997V1.66927C14.9997 1.21094 14.6247 0.835938 14.1663 0.835938C13.708 0.835938 13.333 1.21094 13.333 1.66927V4.16927H10.083C9.59134 4.16927 9.20801 4.59427 9.24967 5.08594L9.34967 6.09427C12.4163 6.8026 14.9997 8.9776 14.9997 12.5026L15.0163 19.1693H16.433C17.133 19.1693 17.708 18.6276 17.7913 17.9443L19.0747 5.08594C19.1247 4.59427 18.7413 4.16927 18.2497 4.16927ZM12.4997 17.5026H1.66634C1.20801 17.5026 0.833008 17.8776 0.833008 18.3359C0.833008 18.7943 1.20801 19.1693 1.66634 19.1693H12.4997C12.958 19.1693 13.333 18.7943 13.333 18.3359C13.333 17.8776 12.958 17.5026 12.4997 17.5026ZM1.74967 12.5026H12.4163C12.933 12.5026 13.3413 12.0359 13.2413 11.5359C12.6997 8.84427 9.89134 7.49427 7.08301 7.49427C4.27467 7.49427 1.47467 8.84427 0.924674 11.5359C0.824674 12.0359 1.24134 12.5026 1.74967 12.5026ZM12.4997 14.1693H1.66634C1.20801 14.1693 0.833008 14.5443 0.833008 15.0026C0.833008 15.4609 1.20801 15.8359 1.66634 15.8359H12.4997C12.958 15.8359 13.333 15.4609 13.333 15.0026C13.333 14.5443 12.958 14.1693 12.4997 14.1693Z" fill="#878D96"/>
</g>
<defs>
<clipPath id="clip0_6598_46505">
<rect width="20" height="20" fill="white"/>
</clipPath>
</defs>
</svg>
