<svg width="17" height="16" viewBox="0 0 17 16" fill="none" xmlns="http://www.w3.org/2000/svg">
<path d="M8.66634 15.5026L7.45801 14.4193C6.05523 13.1554 4.89551 12.0651 3.97884 11.1484C3.06217 10.2318 2.33301 9.40872 1.79134 8.67927C1.24967 7.95038 0.871341 7.28038 0.656341 6.66927C0.441341 6.05816 0.333563 5.43316 0.333008 4.79427C0.333008 3.48871 0.770508 2.39844 1.64551 1.52344C2.52051 0.648437 3.61079 0.210937 4.91634 0.210938C5.63856 0.210938 6.32606 0.363715 6.97884 0.669271C7.63162 0.974826 8.19412 1.40538 8.66634 1.96094C9.13856 1.40538 9.70106 0.974826 10.3538 0.669271C11.0066 0.363715 11.6941 0.210938 12.4163 0.210938C13.7219 0.210938 14.8122 0.648437 15.6872 1.52344C16.5622 2.39844 16.9997 3.48871 16.9997 4.79427C16.9997 5.43316 16.8919 6.05816 16.6763 6.66927C16.4608 7.28038 16.0825 7.95038 15.5413 8.67927C14.9997 9.40872 14.2705 10.2318 13.3538 11.1484C12.4372 12.0651 11.2775 13.1554 9.87467 14.4193L8.66634 15.5026Z" fill="#847C3D"/>
</svg>
