<svg width="21" height="20" viewBox="0 0 21 20" fill="none" xmlns="http://www.w3.org/2000/svg">
<path d="M10.6663 17.5026L9.45801 16.4193C8.05523 15.1554 6.89551 14.0651 5.97884 13.1484C5.06217 12.2318 4.33301 11.4087 3.79134 10.6793C3.24967 9.95038 2.87134 9.28038 2.65634 8.66927C2.44134 8.05816 2.33356 7.43316 2.33301 6.79427C2.33301 5.48871 2.77051 4.39844 3.64551 3.52344C4.52051 2.64844 5.61079 2.21094 6.91634 2.21094C7.63856 2.21094 8.32606 2.36372 8.97884 2.66927C9.63162 2.97483 10.1941 3.40538 10.6663 3.96094C11.1386 3.40538 11.7011 2.97483 12.3538 2.66927C13.0066 2.36372 13.6941 2.21094 14.4163 2.21094C15.7219 2.21094 16.8122 2.64844 17.6872 3.52344C18.5622 4.39844 18.9997 5.48871 18.9997 6.79427C18.9997 7.43316 18.8919 8.05816 18.6763 8.66927C18.4608 9.28038 18.0825 9.95038 17.5413 10.6793C16.9997 11.4087 16.2705 12.2318 15.3538 13.1484C14.4372 14.0651 13.2775 15.1554 11.8747 16.4193L10.6663 17.5026ZM10.6663 15.2526C11.9997 14.0582 13.0969 13.0337 13.958 12.1793C14.8191 11.3248 15.4997 10.582 15.9997 9.95094C16.4997 9.31872 16.8469 8.75594 17.0413 8.2626C17.2358 7.76927 17.333 7.27983 17.333 6.79427C17.333 5.96094 17.0552 5.26649 16.4997 4.71094C15.9441 4.15538 15.2497 3.8776 14.4163 3.8776C13.7636 3.8776 13.1594 4.06149 12.6038 4.42927C12.0483 4.79705 11.6663 5.26594 11.458 5.83594H9.87467C9.66634 5.26649 9.2844 4.7976 8.72884 4.42927C8.17329 4.06094 7.56912 3.87705 6.91634 3.8776C6.08301 3.8776 5.38856 4.15538 4.83301 4.71094C4.27745 5.26649 3.99967 5.96094 3.99967 6.79427C3.99967 7.28038 4.0969 7.7701 4.29134 8.26344C4.48579 8.75677 4.83301 9.31927 5.33301 9.95094C5.83301 10.5826 6.51356 11.3257 7.37467 12.1801C8.23579 13.0345 9.33301 14.0587 10.6663 15.2526Z" fill="#878D96"/>
</svg>
