<svg width="18" height="18" viewBox="0 0 18 18" fill="none" xmlns="http://www.w3.org/2000/svg">
<path d="M8.99999 4.83073C9.45832 4.83073 9.83332 5.20573 9.83332 5.66406V8.9974C9.83332 9.45573 9.45832 9.83073 8.99999 9.83073C8.54166 9.83073 8.16666 9.45573 8.16666 8.9974V5.66406C8.16666 5.20573 8.54166 4.83073 8.99999 4.83073ZM8.99166 0.664062C4.39166 0.664062 0.666656 4.3974 0.666656 8.9974C0.666656 13.5974 4.39166 17.3307 8.99166 17.3307C13.6 17.3307 17.3333 13.5974 17.3333 8.9974C17.3333 4.3974 13.6 0.664062 8.99166 0.664062ZM8.99999 15.6641C5.31666 15.6641 2.33332 12.6807 2.33332 8.9974C2.33332 5.31406 5.31666 2.33073 8.99999 2.33073C12.6833 2.33073 15.6667 5.31406 15.6667 8.9974C15.6667 12.6807 12.6833 15.6641 8.99999 15.6641ZM9.83332 13.1641H8.16666V11.4974H9.83332V13.1641Z" fill="#847C3D"/>
</svg>
