<svg width="20" height="20" viewBox="0 0 20 20" fill="none" xmlns="http://www.w3.org/2000/svg">
<path d="M10.0003 1.66406C6.77533 1.66406 4.16699 4.2724 4.16699 7.4974C4.16699 10.9724 7.85033 15.7641 9.36699 17.5891C9.70033 17.9891 10.3087 17.9891 10.642 17.5891C12.1503 15.7641 15.8337 10.9724 15.8337 7.4974C15.8337 4.2724 13.2253 1.66406 10.0003 1.66406ZM10.0003 9.58073C8.85033 9.58073 7.91699 8.6474 7.91699 7.4974C7.91699 6.3474 8.85033 5.41406 10.0003 5.41406C11.1503 5.41406 12.0837 6.3474 12.0837 7.4974C12.0837 8.6474 11.1503 9.58073 10.0003 9.58073Z" fill="#CB3A31"/>
</svg>
