<svg width="12" height="17" viewBox="0 0 12 17" fill="none" xmlns="http://www.w3.org/2000/svg">
<path d="M5.99996 0.664062C2.77496 0.664062 0.166626 3.2724 0.166626 6.4974C0.166626 9.9724 3.84996 14.7641 5.36663 16.5891C5.69996 16.9891 6.30829 16.9891 6.64163 16.5891C8.14996 14.7641 11.8333 9.9724 11.8333 6.4974C11.8333 3.2724 9.22496 0.664062 5.99996 0.664062ZM5.99996 8.58073C4.84996 8.58073 3.91663 7.6474 3.91663 6.4974C3.91663 5.3474 4.84996 4.41406 5.99996 4.41406C7.14996 4.41406 8.08329 5.3474 8.08329 6.4974C8.08329 7.6474 7.14996 8.58073 5.99996 8.58073Z" fill="#878D96"/>
</svg>
