<svg width="19" height="24" viewBox="0 0 19 24" fill="none" xmlns="http://www.w3.org/2000/svg">
<path d="M0.167969 11.9987C0.167969 12.3081 0.290885 12.6049 0.509678 12.8237C0.72847 13.0424 1.02522 13.1654 1.33464 13.1654H10.1896L7.5063 15.837C7.39695 15.9455 7.31016 16.0745 7.25093 16.2167C7.1917 16.3589 7.1612 16.5114 7.1612 16.6654C7.1612 16.8194 7.1917 16.9719 7.25093 17.114C7.31016 17.2562 7.39695 17.3852 7.5063 17.4937C7.61476 17.603 7.74379 17.6898 7.88596 17.7491C8.02813 17.8083 8.18062 17.8388 8.33464 17.8388C8.48865 17.8388 8.64114 17.8083 8.78331 17.7491C8.92548 17.6898 9.05451 17.603 9.16297 17.4937L13.8296 12.827C13.9359 12.7161 14.0191 12.5852 14.0746 12.442C14.1913 12.158 14.1913 11.8394 14.0746 11.5554C14.0191 11.4122 13.9359 11.2813 13.8296 11.1704L9.16297 6.5037C9.05419 6.39492 8.92505 6.30863 8.78293 6.24976C8.6408 6.19089 8.48847 6.16059 8.33464 6.16059C8.1808 6.16059 8.02847 6.19089 7.88634 6.24976C7.74422 6.30863 7.61508 6.39492 7.5063 6.5037C7.39752 6.61248 7.31124 6.74162 7.25237 6.88374C7.1935 7.02587 7.1632 7.1782 7.1632 7.33203C7.1632 7.48587 7.1935 7.6382 7.25237 7.78032C7.31124 7.92245 7.39752 8.05159 7.5063 8.16037L10.1896 10.832H1.33464C1.02522 10.832 0.72847 10.9549 0.509678 11.1737C0.290885 11.3925 0.167969 11.6893 0.167969 11.9987ZM15.3346 0.332031H3.66797C2.73971 0.332031 1.84947 0.70078 1.1931 1.35716C0.536718 2.01354 0.167969 2.90377 0.167969 3.83203V7.33203C0.167969 7.64145 0.290885 7.9382 0.509678 8.15699C0.72847 8.37578 1.02522 8.4987 1.33464 8.4987C1.64405 8.4987 1.9408 8.37578 2.15959 8.15699C2.37839 7.9382 2.5013 7.64145 2.5013 7.33203V3.83203C2.5013 3.52261 2.62422 3.22587 2.84301 3.00707C3.0618 2.78828 3.35855 2.66536 3.66797 2.66536H15.3346C15.6441 2.66536 15.9408 2.78828 16.1596 3.00707C16.3784 3.22587 16.5013 3.52261 16.5013 3.83203V20.1654C16.5013 20.4748 16.3784 20.7715 16.1596 20.9903C15.9408 21.2091 15.6441 21.332 15.3346 21.332H3.66797C3.35855 21.332 3.0618 21.2091 2.84301 20.9903C2.62422 20.7715 2.5013 20.4748 2.5013 20.1654V16.6654C2.5013 16.3559 2.37839 16.0592 2.15959 15.8404C1.9408 15.6216 1.64405 15.4987 1.33464 15.4987C1.02522 15.4987 0.72847 15.6216 0.509678 15.8404C0.290885 16.0592 0.167969 16.3559 0.167969 16.6654V20.1654C0.167969 21.0936 0.536718 21.9839 1.1931 22.6402C1.84947 23.2966 2.73971 23.6654 3.66797 23.6654H15.3346C16.2629 23.6654 17.1531 23.2966 17.8095 22.6402C18.4659 21.9839 18.8346 21.0936 18.8346 20.1654V3.83203C18.8346 2.90377 18.4659 2.01354 17.8095 1.35716C17.1531 0.70078 16.2629 0.332031 15.3346 0.332031Z" fill="#CB3A31"/>
</svg>
