<svg width="17" height="17" viewBox="0 0 17 17" fill="none" xmlns="http://www.w3.org/2000/svg">
<path d="M5.16471 5.5026H11.8314M5.16471 8.83594H10.1647M13.498 1.33594C14.1611 1.33594 14.797 1.59933 15.2658 2.06817C15.7347 2.53701 15.998 3.1729 15.998 3.83594V10.5026C15.998 11.1656 15.7347 11.8015 15.2658 12.2704C14.797 12.7392 14.1611 13.0026 13.498 13.0026H9.33138L5.16471 15.5026V13.0026H3.49805C2.83501 13.0026 2.19912 12.7392 1.73028 12.2704C1.26144 11.8015 0.998047 11.1656 0.998047 10.5026V3.83594C0.998047 3.1729 1.26144 2.53701 1.73028 2.06817C2.19912 1.59933 2.83501 1.33594 3.49805 1.33594H13.498Z" stroke="#878D96" stroke-width="1.66667" stroke-linecap="round" stroke-linejoin="round"/>
</svg>
