<svg width="32" height="33" viewBox="0 0 32 33" fill="none" xmlns="http://www.w3.org/2000/svg">
<g clip-path="url(#clip0_3300_81140)">
<path d="M27 24.2859C27 30.3359 22.1 30.3359 16 30.3359C9.9 30.3359 5 30.3359 5 24.2859C5 18.2359 9.95 8.33594 16 8.33594C22.05 8.33594 27 18.1859 27 24.2859Z" fill="#DBB471"/>
<path opacity="0.5" d="M26.9992 24.2859C26.9992 22.2359 26.4492 19.7359 25.4492 17.3359C25.6492 18.8859 25.2492 21.6359 20.4992 22.6859C13.7492 24.1359 17.2492 26.0359 14.5992 26.2859C12.3492 26.4859 6.34922 25.5859 5.14922 22.1859C5.04922 22.9359 4.94922 23.6359 4.94922 24.3359C4.99922 30.3359 9.94922 30.3359 15.9992 30.3359C22.0492 30.3359 26.9992 30.3359 26.9992 24.2859Z" fill="#89664C"/>
<path d="M18.9488 21.3875C18.7488 20.3875 17.8988 20.0875 16.9988 20.0375V18.6375C17.2488 18.7375 17.5488 18.8875 17.7488 19.0375C18.1488 19.2875 18.5488 18.6375 18.1488 18.3875C17.7988 18.1875 17.3988 17.9875 16.9988 17.8375V16.1875C16.9988 15.6875 16.2488 15.6875 16.2488 16.1875V17.6375C15.8488 17.5875 15.4488 17.5875 15.0488 17.6375C14.9988 17.2875 14.8988 16.9375 14.7988 16.5875C14.6988 16.0875 13.9488 16.2875 14.0988 16.7875C14.1988 17.1375 14.2488 17.4875 14.3488 17.8375C14.2988 17.8375 14.2988 17.8375 14.2488 17.8875C13.2488 18.2875 12.5988 19.2875 13.3488 20.2375C13.6988 20.6875 14.1488 20.8375 14.6488 20.9375C14.6988 21.5875 14.6988 22.2375 14.6988 22.8875C14.3488 22.6875 14.0488 22.3875 13.7988 22.1375C13.4488 21.7875 12.9488 22.3375 13.2488 22.6875C13.6988 23.1875 14.1988 23.5375 14.6988 23.7875C14.6988 24.3375 14.7488 24.8875 14.7988 25.4375C14.8488 25.9375 15.5988 25.9375 15.5488 25.4375C15.4988 24.9375 15.4488 24.4875 15.4488 23.9875C15.7488 24.0375 16.0488 24.0375 16.3488 24.0375C16.3988 24.5375 16.4488 25.0375 16.4988 25.5875C16.5488 26.0875 17.2988 26.0875 17.2488 25.5875C17.1988 25.0375 17.1488 24.4875 17.0988 23.8875C18.1988 23.4875 19.1988 22.6375 18.9488 21.3875ZM16.2488 18.3875V20.0375C15.9988 20.0375 15.7988 20.0875 15.5988 20.0875H15.3488L15.1988 18.2875C15.5488 18.2875 15.8988 18.3375 16.2488 18.3875ZM14.4488 19.9875C14.2488 19.9375 14.0488 19.7875 13.8488 19.6375C13.3988 19.1875 14.0488 18.7875 14.4488 18.5875C14.4988 19.0875 14.5488 19.5375 14.5988 20.0375C14.5488 20.0375 14.4988 20.0375 14.4488 19.9875ZM16.0988 23.1875C15.8488 23.2375 15.6488 23.1875 15.4488 23.1375C15.3988 22.3875 15.3988 21.6375 15.3988 20.8375C15.6988 20.8375 15.9988 20.7875 16.2988 20.7875C16.2988 21.5875 16.3488 22.3375 16.3488 23.1375C16.2488 23.1875 16.1988 23.1875 16.0988 23.1875ZM17.7488 22.6375C17.5488 22.7875 17.2988 22.8875 17.0988 22.9875C17.0488 22.2375 17.0488 21.5375 17.0488 20.7875H17.2988C18.2488 20.9875 18.4988 22.0375 17.7488 22.6375Z" fill="#89664C"/>
<path d="M16.9996 28.3359H15.8496V30.3359L20.4996 32.8359L30.9996 29.5859V27.8359L27.1496 25.5859L16.9996 28.3359Z" fill="#699635"/>
<path d="M16 27.1859C16 27.1859 17.2 29.1359 20.6 30.8359C20.6 30.8359 25.9 30.5859 31 27.1859C31 27.1859 28.05 25.7359 27.2 23.8359C27.2 23.8359 25.2 26.6359 16 27.1859Z" fill="#83BF4F"/>
<path d="M13.7488 28.2844L14.8488 28.2344L14.9988 30.0844L10.6488 32.8344L0.198828 30.5844L0.0488281 28.9344L3.59883 26.4844L13.7488 28.2844Z" fill="#699635"/>
<path d="M14.6 27.1359C14.6 27.1359 13.55 29.0859 10.4 30.9359C10.4 30.9359 5.25 31.0859 0 28.3359C0 28.3359 2.8 26.7359 3.45 24.8359C3.45 24.8359 5.65 27.3359 14.6 27.1359Z" fill="#83BF4F"/>
<path d="M12.0984 27.6838C12.0984 27.6838 11.9484 28.0838 12.6484 28.1338L10.7984 29.6838C10.7984 29.6838 9.69844 29.5838 9.44844 30.3338C9.44844 30.3338 4.94844 29.8338 2.04844 28.5338C2.04844 28.5338 2.64844 28.0838 1.89844 27.7838C1.89844 27.7838 2.74844 27.1838 2.94844 26.6338C2.94844 26.6338 3.74844 26.7338 3.99844 26.1338C4.09844 26.0838 7.09844 27.8838 12.0984 27.6838Z" stroke="#699635" stroke-width="0.5" stroke-miterlimit="10"/>
<path d="M4.39922 28.3859C4.92389 28.3859 5.34922 28.0949 5.34922 27.7359C5.34922 27.377 4.92389 27.0859 4.39922 27.0859C3.87455 27.0859 3.44922 27.377 3.44922 27.7359C3.44922 28.0949 3.87455 28.3859 4.39922 28.3859Z" fill="#699635"/>
<path d="M9.49844 26.9391C9.49844 26.9391 8.34844 28.4391 5.84844 30.4891L5.99844 31.8391L4.24844 31.4391L4.14844 29.9891C4.14844 29.9891 6.69844 27.6391 7.24844 26.4891C7.19844 26.4891 8.09844 26.7891 9.49844 26.9391ZM21.0484 26.5891C21.0484 26.5891 21.4984 27.7891 24.8984 29.9891V31.4391L26.8484 30.8391V29.3391C26.8484 29.3391 24.4984 27.6891 23.0984 26.0391L21.0484 26.5891Z" fill="#F9F3D9"/>
<path d="M18.2 24.9906L17.1 24.9406L17 26.9906L21.45 29.8406L31.9 26.9906L31.95 25.1906L28.3 22.6406L18.2 24.9906Z" fill="#699635"/>
<path d="M17.2988 23.7359C17.2988 23.7359 18.3988 25.8359 21.6488 27.7359C21.6488 27.7359 26.8488 27.7359 31.9988 24.5359C31.9988 24.5359 29.1488 22.8859 28.4488 20.8359C28.4488 20.8359 26.2988 23.6359 17.2988 23.7359Z" fill="#83BF4F"/>
<path d="M19.55 24.2906C19.55 24.2906 19.8 24.6906 19 24.8406L21.1 26.4906C21.1 26.4906 22.3 26.1906 22.7 26.8906C22.7 26.8906 27.7 25.9906 30 24.7906C30 24.7906 29.25 24.4406 30 23.9906C30 23.9906 29.1 23.2406 28.75 22.7406C28.75 22.7406 27.9 22.9906 27.45 22.3906C27.45 22.4406 25.65 24.0406 19.55 24.2906Z" stroke="#699635" stroke-width="0.5" stroke-miterlimit="10"/>
<path d="M23.3985 25.5392C23.1985 25.7892 22.5485 25.8892 21.9985 25.7392C21.4485 25.5892 21.1985 25.2392 21.3985 24.9892C21.5985 24.7392 22.2485 24.6392 22.7985 24.7892C23.3485 24.9392 23.5985 25.2392 23.3985 25.5392Z" fill="#699635"/>
<path d="M22.3984 23.3391C22.3984 23.3391 23.5984 24.9391 26.1484 27.0891L26.0984 28.5891L27.8484 28.0891L27.8984 26.4891C27.8984 26.4891 25.2984 23.9891 24.6484 22.7891C24.6984 22.7891 23.8484 23.1391 22.3984 23.3391Z" fill="#F9F3D9"/>
<path d="M23 1.83594C23 4.88594 19.05 9.83594 16 9.83594C12.95 9.83594 9 5.38594 9 2.33594C9 -0.714062 9.45 2.33594 12.5 2.33594C12.95 2.33594 15.05 0.835938 16 0.835938C16.65 0.835938 18.5 2.33594 19.5 2.33594C22.15 2.33594 23 -0.464062 23 1.83594Z" fill="#DBB471"/>
<path d="M15.0984 7.4894C14.7984 7.6894 13.3484 7.5394 12.8984 7.8894C12.2984 8.3394 13.1484 9.3894 12.5484 10.0394C11.3484 11.2394 10.3984 12.5894 10.6984 13.3394C11.1984 14.6394 12.1484 10.9394 12.9984 12.3394C13.8484 13.7394 13.6984 11.3894 14.9984 12.5894C16.2984 13.7894 15.1984 10.4394 16.4484 11.8894C17.6984 13.3394 17.7484 14.9894 18.6484 14.9894C19.6984 14.9894 17.5484 11.0394 18.9484 11.9894C20.3484 12.9394 21.8984 12.5894 20.4984 11.1394C20.0484 10.6894 19.4484 9.8894 18.7484 9.1894C18.4984 8.9394 18.6984 7.6394 18.4484 7.4394C18.1484 7.1894 17.3984 7.9894 17.0984 7.8394C16.4984 7.5394 16.6984 8.0894 15.7984 8.2394C15.1984 8.4394 15.6984 7.0894 15.0984 7.4894Z" fill="#89664C"/>
<path d="M9.35008 10.4408C11.3001 8.59083 14.8501 9.64083 16.9501 10.5408C19.0001 11.4408 20.2501 8.59083 18.9501 7.14083C18.2001 6.29083 17.0001 7.29083 16.5501 7.89083C16.0501 8.49083 15.6501 9.14083 15.1001 9.74083C14.3001 10.6408 12.3501 9.89083 12.9501 8.64083C13.6001 7.34083 16.3501 8.84083 17.2501 9.09083C19.0001 9.59083 20.8501 9.79083 22.6001 9.14083C23.2001 8.94083 22.9501 7.94083 22.3501 8.19083C20.4001 8.89083 18.4501 8.44083 16.6001 7.84083C15.6501 7.54083 14.1501 6.74083 13.1501 7.19083C10.3001 8.54083 12.9501 12.3908 15.3501 10.8908C15.9001 10.5408 16.2501 9.99083 16.6501 9.49083C16.9001 9.19083 18.1501 7.29083 18.4501 8.24083C18.6001 8.74083 18.4501 9.64083 17.9001 9.79083C17.5501 9.94083 16.8501 9.44083 16.5001 9.34083C15.8501 9.09083 15.2001 8.89083 14.5001 8.74083C12.6501 8.34083 10.1501 8.44083 8.70008 9.79083C8.20008 10.1908 8.90008 10.8908 9.35008 10.4408Z" fill="#E8E8E8"/>
<path d="M22.4 1.08594C21.9 1.48594 21 2.33594 19.5 2.33594C18.5 2.33594 16.65 0.835938 16 0.835938C15.05 0.835938 12.95 2.33594 12.5 2.33594C10.85 2.33594 9.95 1.48594 9.5 1.13594C9.5 1.13594 10.05 3.38594 11.75 4.53594C13 5.33594 12.85 4.38594 13.5 3.48594C14.15 2.58594 14.6 2.13594 15.75 4.38594C16.35 5.63594 17.5 0.985937 18.4 2.48594C20.05 5.23594 20.65 3.73594 22.4 1.08594Z" fill="#89664C"/>
<path d="M26.199 27.0375L26.149 28.5375L27.899 28.0375L27.949 26.4375C27.949 26.4875 26.899 26.8875 26.199 27.0375ZM24.899 30.0375V31.4875L26.849 30.8875V29.3875C26.799 29.3375 26.299 29.6375 24.899 30.0375ZM5.849 30.4375L5.999 31.8375L4.249 31.4375L4.149 29.9875C4.099 29.9875 4.799 30.2375 5.849 30.4375Z" fill="#DBB471"/>
</g>
<defs>
<clipPath id="clip0_3300_81140">
<rect width="32" height="32" fill="white" transform="translate(0 0.835938)"/>
</clipPath>
</defs>
</svg>
