<svg width="20" height="20" viewBox="0 0 20 20" fill="none" xmlns="http://www.w3.org/2000/svg">
<path d="M9.99967 10.0026C9.08301 10.0026 8.29829 9.67622 7.64551 9.02344C6.99273 8.37066 6.66634 7.58594 6.66634 6.66927C6.66634 5.7526 6.99273 4.96788 7.64551 4.3151C8.29829 3.66233 9.08301 3.33594 9.99967 3.33594C10.9163 3.33594 11.7011 3.66233 12.3538 4.3151C13.0066 4.96788 13.333 5.7526 13.333 6.66927C13.333 7.58594 13.0066 8.37066 12.3538 9.02344C11.7011 9.67622 10.9163 10.0026 9.99967 10.0026ZM3.33301 16.6693V14.3359C3.33301 13.8637 3.45467 13.4295 3.69801 13.0334C3.94134 12.6373 4.26412 12.3354 4.66634 12.1276C5.52745 11.697 6.40245 11.374 7.29134 11.1584C8.18023 10.9429 9.08301 10.8354 9.99967 10.8359C10.9163 10.8359 11.8191 10.9437 12.708 11.1593C13.5969 11.3748 14.4719 11.6976 15.333 12.1276C15.7358 12.3359 16.0588 12.6382 16.3022 13.0343C16.5455 13.4304 16.6669 13.8643 16.6663 14.3359V16.6693H3.33301ZM4.99967 15.0026H14.9997V14.3359C14.9997 14.1832 14.9613 14.0443 14.8847 13.9193C14.808 13.7943 14.7075 13.697 14.583 13.6276C13.833 13.2526 13.0761 12.9715 12.3122 12.7843C11.5483 12.597 10.7775 12.5032 9.99967 12.5026C9.2219 12.5026 8.45106 12.5965 7.68717 12.7843C6.92329 12.972 6.16634 13.2532 5.41634 13.6276C5.29134 13.697 5.19051 13.7943 5.11384 13.9193C5.03717 14.0443 4.99912 14.1832 4.99967 14.3359V15.0026ZM9.99967 8.33594C10.458 8.33594 10.8505 8.1726 11.1772 7.84594C11.5038 7.51927 11.6669 7.12705 11.6663 6.66927C11.6663 6.21094 11.503 5.81844 11.1763 5.49177C10.8497 5.1651 10.4575 5.00205 9.99967 5.0026C9.54134 5.0026 9.14884 5.16594 8.82217 5.4926C8.49551 5.81927 8.33245 6.21149 8.33301 6.66927C8.33301 7.1276 8.49634 7.5201 8.82301 7.84677C9.14967 8.17344 9.5419 8.33649 9.99967 8.33594Z" fill="#878D96"/>
</svg>
