<svg width="15" height="15" viewBox="0 0 15 15" fill="none" xmlns="http://www.w3.org/2000/svg">
<path d="M10.9162 9.66719H10.2579L10.0245 9.44219C11.0245 8.27552 11.5412 6.68386 11.2579 4.99219C10.8662 2.67552 8.93288 0.825521 6.59955 0.542188C3.07454 0.108855 0.107878 3.07552 0.541211 6.60052C0.824545 8.93386 2.67455 10.8672 4.99121 11.2589C6.68288 11.5422 8.27454 11.0255 9.44121 10.0255L9.66621 10.2589V10.9172L13.2079 14.4589C13.5495 14.8005 14.1079 14.8005 14.4495 14.4589C14.7912 14.1172 14.7912 13.5589 14.4495 13.2172L10.9162 9.66719ZM5.91621 9.66719C3.84121 9.66719 2.16621 7.99219 2.16621 5.91719C2.16621 3.84219 3.84121 2.16719 5.91621 2.16719C7.99121 2.16719 9.66621 3.84219 9.66621 5.91719C9.66621 7.99219 7.99121 9.66719 5.91621 9.66719Z" fill="#847C3D"/>
</svg>
