<svg width="20" height="20" viewBox="0 0 20 20" fill="none" xmlns="http://www.w3.org/2000/svg">
<path d="M12.2083 4.1469L8.04167 2.68857C7.69167 2.56357 7.30833 2.56357 6.95833 2.68024L3.63333 3.7969C2.95833 4.03024 2.5 4.66357 2.5 5.38024V15.2552C2.5 16.4302 3.675 17.2302 4.76667 16.8052L7.20833 15.8552C7.39167 15.7802 7.6 15.7802 7.78333 15.8469L11.95 17.3052C12.3 17.4302 12.6833 17.4302 13.0333 17.3136L16.3583 16.1969C17.0333 15.9719 17.4917 15.3302 17.4917 14.6136V4.73857C17.4917 3.56357 16.3167 2.76357 15.225 3.18857L12.7833 4.13857C12.6 4.20524 12.4 4.21357 12.2083 4.1469ZM12.5 15.7386L7.5 13.9802V4.25524L12.5 6.01357V15.7386Z" fill="#016DB2"/>
</svg>
