<svg width="20" height="20" viewBox="0 0 20 20" fill="none" xmlns="http://www.w3.org/2000/svg">
<path d="M10.0003 1.66406C5.40033 1.66406 1.66699 5.3974 1.66699 9.9974C1.66699 14.5974 5.40033 18.3307 10.0003 18.3307C14.6003 18.3307 18.3337 14.5974 18.3337 9.9974C18.3337 5.3974 14.6003 1.66406 10.0003 1.66406ZM10.0003 16.6641C6.31699 16.6641 3.33366 13.6807 3.33366 9.9974C3.33366 6.31406 6.31699 3.33073 10.0003 3.33073C13.6837 3.33073 16.667 6.31406 16.667 9.9974C16.667 13.6807 13.6837 16.6641 10.0003 16.6641Z" fill="#016DB2"/>
<path d="M9.99967 14.1693C12.3009 14.1693 14.1663 12.3038 14.1663 10.0026C14.1663 7.70142 12.3009 5.83594 9.99967 5.83594C7.69849 5.83594 5.83301 7.70142 5.83301 10.0026C5.83301 12.3038 7.69849 14.1693 9.99967 14.1693Z" fill="#016DB2"/>
</svg>
