<svg width="20" height="20" viewBox="0 0 20 20" fill="none" xmlns="http://www.w3.org/2000/svg">
<g clip-path="url(#clip0_6253_50856)">
<path fill-rule="evenodd" clip-rule="evenodd" d="M10.0007 0.835938C4.93815 0.835938 0.833984 4.9401 0.833984 10.0026C0.833984 15.0651 4.93815 19.1693 10.0007 19.1693C15.0632 19.1693 19.1673 15.0651 19.1673 10.0026C19.1673 4.9401 15.0632 0.835938 10.0007 0.835938ZM13.974 8.4526C14.0471 8.36897 14.1028 8.27155 14.1378 8.16608C14.1728 8.0606 14.1863 7.9492 14.1775 7.83843C14.1688 7.72765 14.138 7.61974 14.087 7.52104C14.0359 7.42235 13.9656 7.33486 13.8803 7.26372C13.7949 7.19259 13.6962 7.13924 13.5899 7.10682C13.4836 7.07441 13.3719 7.06357 13.2614 7.07496C13.1509 7.08635 13.0437 7.11973 12.9463 7.17313C12.8488 7.22654 12.7631 7.29889 12.694 7.38594L9.11065 11.6851L7.25648 9.8301C7.09932 9.67831 6.88881 9.59431 6.67032 9.59621C6.45182 9.59811 6.24281 9.68575 6.0883 9.84026C5.9338 9.99476 5.84615 10.2038 5.84426 10.4223C5.84236 10.6408 5.92635 10.8513 6.07815 11.0084L8.57815 13.5084C8.66003 13.5903 8.75806 13.6541 8.866 13.696C8.97393 13.7378 9.0894 13.7567 9.20504 13.7515C9.32068 13.7462 9.43396 13.7169 9.53766 13.6655C9.64136 13.614 9.73319 13.5415 9.80732 13.4526L13.974 8.4526Z" fill="#4BB543"/>
</g>
<defs>
<clipPath id="clip0_6253_50856">
<rect width="20" height="20" fill="white"/>
</clipPath>
</defs>
</svg>
