<svg width="40" height="41" viewBox="0 0 40 41" fill="none" xmlns="http://www.w3.org/2000/svg">
<path d="M21.8793 17.1312C21.8793 17.1312 22.0449 16.6531 22.4043 16.4875C22.7605 16.3219 23.3574 16.2969 23.3574 16.2969L24.3574 28.125L23.5449 33.9625C23.5449 33.9625 23.3074 34.6531 22.6855 34.6781C22.0668 34.7031 16.9137 34.6781 16.4605 34.6781C16.0074 34.6781 15.8637 34.0812 15.8418 33.8187C15.8168 33.5562 15.8262 33.1156 15.8262 33.1156L13.6262 33.1062C13.6262 33.1062 13.498 34.0437 13.7105 34.6344C13.8949 35.1469 14.0605 35.5562 14.0574 35.7312C14.0543 35.9812 13.723 36.2312 13.3418 36.2094C12.9605 36.1844 12.3887 35.6844 12.0074 35.375C11.6262 35.0656 5.51367 35.1375 5.51367 35.1375C5.51367 35.1375 5.21992 35.6812 4.8918 36.0094C4.69492 36.2062 4.37617 36.3031 4.08867 36.3031C3.80117 36.3031 3.44492 35.9219 3.5168 35.6594C3.58867 35.3969 3.91367 34.7938 3.96992 34.2063C3.99492 33.9406 3.96367 33.2 3.83242 33.0781C3.80117 33.05 3.32617 33.0656 2.88242 33.0187C2.12617 32.9406 1.36992 31.9625 1.27617 31.2C1.1793 30.4375 1.25117 28.0281 1.25117 28.0281L21.8793 17.1312Z" fill="#B3AFAF"/>
<path d="M23.7441 30.375H1.23477C1.23477 30.375 1.18164 31.0062 1.29101 31.4125C1.349 31.6281 1.44765 31.8307 1.58164 32.0094L23.616 32.0063L23.7441 30.375Z" fill="#9A9A9A"/>
<path d="M31.6402 29.3453L36.4059 30.8203L38.7871 29.9984C38.7871 29.9984 38.7027 25.5172 38.6746 25.0641C38.6465 24.6109 38.534 24.2141 38.1059 23.9297C37.6809 23.6453 36.4902 22.9359 36.4902 22.9359C36.4902 22.9359 32.8309 17.0641 32.5184 16.6391C32.2059 16.2141 31.8215 15.6953 30.9121 15.6109C30.0027 15.5266 24.3902 15.5953 23.8809 15.6234C23.3715 15.6516 22.9902 15.8828 22.9902 16.9891C22.9902 18.0953 23.0184 26.5391 23.0465 26.9641C23.0746 27.3891 25.2027 28.9484 25.2027 28.9484L31.6402 29.3453Z" fill="#E0E0E0"/>
<path d="M24.702 34.7219C24.702 34.7219 24.2457 34.7344 23.9301 34.6906C23.6145 34.6469 23.1395 34.3312 23.1176 33.5844C23.1051 33.1406 23.0457 26.9688 23.0457 26.9688L31.5457 26.9875L34.2957 29.9969L38.7863 30.0031C38.7863 30.0031 38.8051 31.7687 38.7926 32.2406C38.7801 32.7156 36.3363 33.75 36.3363 33.75L24.702 34.7219Z" fill="#DC0D28"/>
<path d="M38.7938 32.2442H33.675C33.675 32.2442 32.5781 30.0567 29.425 30.0942C24.7938 30.1505 24.7 34.7224 24.7 34.7224H36.7625C37.4406 34.7224 38.4094 34.4974 38.6563 33.6411C38.8656 32.9224 38.7938 32.2442 38.7938 32.2442Z" fill="#B10A1B"/>
<path d="M35.6599 24.1699C35.6599 24.1699 35.6599 23.6605 35.9942 23.6418C36.3286 23.623 36.6974 23.8324 37.0317 24.1168C37.3849 24.4168 37.5599 24.6887 37.6286 24.9262C37.7349 25.2793 37.6474 25.5949 37.1005 25.6105C36.4317 25.6324 25.813 25.5637 25.3224 25.523C24.7067 25.4699 24.338 25.2074 24.3567 24.748C24.3724 24.3074 24.6911 24.1668 26.0099 24.1512C27.3286 24.1355 35.6599 24.1699 35.6599 24.1699Z" fill="white"/>
<path d="M38.6871 25.6611C38.6871 25.6611 35.4965 25.5611 35.4277 25.6392C35.3309 25.7548 35.3121 27.2611 35.3465 27.4892C35.3809 27.7173 35.6809 27.8767 36.0496 27.8923C36.4184 27.908 38.7402 27.9455 38.7402 27.9455L38.6871 25.6611Z" fill="#FDEDC5"/>
<path d="M25.5501 23.6182C25.0564 23.6182 24.8814 23.0557 24.8814 22.6682V17.7651C24.8814 17.3776 25.1282 17.1682 25.9001 17.1307C26.6751 17.0963 30.2064 17.1369 30.5939 17.1494C31.1907 17.1682 31.597 17.4307 32.1407 18.1869C32.4939 18.6776 34.672 22.2838 34.847 22.5807C35.022 22.8807 35.2345 23.6713 34.3189 23.6869C33.372 23.7057 25.5501 23.6182 25.5501 23.6182Z" fill="#5F6369"/>
<path d="M33.8652 22.7986H25.9902C25.8309 22.7986 25.6902 22.6236 25.6902 22.4111C25.6902 22.1986 25.6777 18.8799 25.6715 18.683C25.6527 18.1393 26.059 18.0143 26.409 18.033C26.7621 18.0518 30.3184 18.0393 30.5277 18.0486C30.9309 18.0674 31.3309 18.608 31.6809 19.1424C32.1027 19.7893 33.8652 22.7986 33.8652 22.7986Z" fill="#AFE3FB"/>
<path d="M33.7437 23.3844C33.7093 24.175 32.4437 24.825 32.125 24.8438C31.8093 24.8625 31.6156 24.2469 31.5812 23.4187C31.5468 22.5906 31.8781 21.9062 32.1437 21.9062C32.4062 21.9062 33.7718 22.7156 33.7437 23.3844Z" fill="#5F6369"/>
<path d="M33.4682 35.221C33.4432 36.7835 32.1995 39.0304 29.4932 39.046C26.787 39.0616 25.3807 36.9866 25.4682 34.8585C25.5557 32.696 27.2338 31.1679 29.6495 31.2366C31.9088 31.3054 33.5026 33.0616 33.4682 35.221Z" fill="#4E433D"/>
<path d="M31.534 35.1284C31.5215 35.9503 30.8683 37.1378 29.4433 37.1472C28.0183 37.1566 27.3308 36.1253 27.3746 35.0034C27.4215 33.8628 28.3308 33.0128 29.5246 33.0316C30.7121 33.0472 31.5496 33.9878 31.534 35.1284Z" fill="#C8C8C8"/>
<path d="M12.8432 35.221C12.8182 36.7835 11.5745 39.0304 8.8682 39.046C6.16195 39.0616 4.7557 36.9866 4.84321 34.8585C4.93071 32.696 6.60883 31.1679 9.02445 31.2366C11.2838 31.3054 12.8776 33.0616 12.8432 35.221Z" fill="#4E433D"/>
<path d="M10.909 35.1284C10.8965 35.9503 10.2433 37.1378 8.81834 37.1472C7.39646 37.1566 6.70584 36.1253 6.74959 35.0034C6.79646 33.8628 7.70584 33.0128 8.89959 33.0316C10.0871 33.0472 10.9246 33.9878 10.909 35.1284Z" fill="#C8C8C8"/>
<path d="M22.2293 9.2875C22.2293 8.46875 21.8699 8.14062 21.2137 8.175C20.5574 8.20625 2.57305 8.10938 1.98555 8.10938C1.39805 8.10938 1.1668 8.73125 1.1668 9.09062C1.1668 9.45 1.2793 27.6813 1.2543 28.0344C1.23242 28.3875 1.3293 28.8781 1.95117 28.9437C2.57305 29.0094 21.0168 28.975 21.4105 28.9437C21.8043 28.9125 22.2949 28.5844 22.2949 28.125C22.2949 27.6625 22.2293 9.7125 22.2293 9.2875Z" fill="#D16E1D"/>
<path d="M20.5904 10C20.5904 10.425 20.7217 26.3469 20.7217 26.7406C20.7217 27.1344 20.5248 27.5938 19.9998 27.5938C19.4748 27.5938 3.35918 27.625 3.03105 27.5938C2.70293 27.5625 2.50605 27.3656 2.4748 26.8406C2.44355 26.3156 2.44355 10.3312 2.44355 9.80625C2.44355 9.28125 2.96855 9.25 3.5248 9.25C4.08105 9.25 19.8373 9.28125 20.0686 9.31562C20.2967 9.34375 20.5904 9.575 20.5904 10Z" fill="#F5B03A"/>
<path d="M16.734 28.1562C16.7527 22.3906 16.7933 8.94375 16.7277 8.57812L16.2652 8.6625L15.7996 8.71875C15.8433 9.23437 15.8215 20.6219 15.7965 28.1531L16.734 28.1562ZM11.9527 8.63125H11.0152V28.1875H11.9527V8.63125ZM7.22145 8.64687H6.28395V28.1062H7.22145V8.64687Z" fill="#D16E1D"/>
</svg>
