<svg width="41" height="41" viewBox="0 0 41 41" fill="none" xmlns="http://www.w3.org/2000/svg">
<path d="M10.042 15.8125V27.35C9.87845 27.3486 9.71517 27.3633 9.55449 27.3937C9.48683 27.4002 9.41989 27.4127 9.35449 27.4312L9.20449 27.4687C9.12542 27.4871 9.04806 27.5122 8.97324 27.5437H8.91699C8.81226 27.581 8.70998 27.6249 8.61074 27.675C8.5023 27.7301 8.39787 27.7927 8.29824 27.8625C8.20511 27.922 8.11538 27.9867 8.02949 28.0562C7.93752 28.1348 7.84989 28.2182 7.76699 28.3062C7.68574 28.3937 7.61074 28.4875 7.53574 28.5812C7.35961 28.8123 7.21656 29.0669 7.11074 29.3375C7.11074 29.4062 7.06074 29.4687 7.04199 29.5375V29.5687C7.04199 29.6437 6.99824 29.7187 6.97949 29.8V29.9187C6.94161 30.1102 6.92276 30.3049 6.92324 30.5H5.47949C5.14797 30.5 4.83003 30.3683 4.59561 30.1339C4.36119 29.8995 4.22949 29.5815 4.22949 29.25V25.4875H6.19199C6.52351 25.4875 6.84146 25.3558 7.07588 25.1214C7.3103 24.887 7.44199 24.569 7.44199 24.2375V16.5875C8.36469 16.5814 9.26655 16.3126 10.042 15.8125Z" fill="#421E4F"/>
<path d="M7.44199 16.5938V24.2438C7.44199 24.5753 7.3103 24.8932 7.07588 25.1276C6.84146 25.3621 6.52351 25.4938 6.19199 25.4938H4.22949V15.3438C5.11267 16.1372 6.25477 16.5816 7.44199 16.5938Z" fill="#0C084C"/>
<path d="M12.3358 11.6656C12.3358 11.7781 12.3358 11.8906 12.3358 12.0031C12.2915 13.2823 11.7466 14.493 10.8183 15.3743C9.89008 16.2556 8.65282 16.737 7.37303 16.7149C6.09325 16.6928 4.87337 16.1688 3.97615 15.256C3.07893 14.3431 2.57617 13.1143 2.57617 11.8344C2.57617 10.5544 3.07893 9.32564 3.97615 8.41278C4.87337 7.49991 6.09325 6.97598 7.37303 6.95386C8.65282 6.93173 9.89008 7.41317 10.8183 8.29447C11.7466 9.17577 12.2915 10.3864 12.3358 11.6656Z" fill="#FCD307"/>
<path opacity="0.5" d="M7.44238 6.78125C6.48313 6.78081 5.54496 7.06266 4.74476 7.59168C3.94457 8.1207 3.31774 8.87349 2.94238 9.75625C3.61978 9.05614 4.49094 8.57443 5.44406 8.37295C6.39718 8.17147 7.38876 8.25941 8.29154 8.62549C9.19432 8.99158 9.9671 9.61909 10.5107 10.4275C11.0543 11.2359 11.3439 12.1883 11.3424 13.1625C11.3424 13.275 11.3424 13.3875 11.3424 13.5C11.3056 14.0522 11.1723 14.5938 10.9486 15.1C11.7665 14.2705 12.2589 13.1748 12.3361 12.0125C12.3361 11.9 12.3361 11.7875 12.3361 11.675C12.3345 10.3776 11.8184 9.13382 10.901 8.21642C9.98356 7.29903 8.73978 6.7829 7.44238 6.78125Z" fill="white"/>
<path opacity="0.2" d="M11.0422 14.1766C10.3012 14.6428 9.44871 14.9018 8.57356 14.9264C7.69841 14.951 6.83268 14.7404 6.06664 14.3165C5.3006 13.8926 4.6623 13.271 4.21828 12.5165C3.77427 11.7619 3.54081 10.9021 3.54224 10.0266C3.5458 9.45519 3.64727 8.88865 3.84224 8.35156C3.03785 9.22324 2.57742 10.3574 2.54658 11.5431C2.51573 12.7288 2.91657 13.8854 3.67454 14.7977C4.43252 15.71 5.49604 16.316 6.66732 16.5029C7.8386 16.6899 9.03792 16.4451 10.0422 15.8141C10.965 15.2257 11.6646 14.3457 12.0297 13.3141C11.7412 13.645 11.409 13.9351 11.0422 14.1766Z" fill="black"/>
<path d="M25.4805 12V30.5438H13.2617C13.263 29.8908 13.0634 29.2533 12.69 28.7178C12.3165 28.1822 11.7873 27.7745 11.1742 27.55C10.8127 27.414 10.4292 27.3462 10.043 27.35V15.8125C10.697 15.4021 11.2447 14.8427 11.6412 14.1801C12.0377 13.5174 12.2717 12.7704 12.3242 12H25.4805ZM38.793 23.4625V28.0188C38.793 28.6818 38.5296 29.3177 38.0607 29.7865C37.5919 30.2554 36.956 30.5188 36.293 30.5188H33.9867C33.9867 29.6717 33.6502 28.8594 33.0513 28.2604C32.4523 27.6615 31.64 27.325 30.793 27.325C29.9459 27.325 29.1336 27.6615 28.5346 28.2604C27.9357 28.8594 27.5992 29.6717 27.5992 30.5188H25.4805V12H30.3242C30.7375 11.9994 31.1446 12.1013 31.5089 12.2965C31.8732 12.4917 32.1834 12.7742 32.4117 13.1188L35.9805 18.4938L37.068 20.1313L38.3742 22.1C38.6431 22.5039 38.7886 22.9773 38.793 23.4625Z" fill="#723881"/>
<path d="M35.9805 18.4938H31.6055C30.9424 18.4938 30.3065 18.2304 29.8377 17.7615C29.3689 17.2927 29.1055 16.6568 29.1055 15.9938V12H30.3555C30.7688 11.9994 31.1758 12.1013 31.5401 12.2965C31.9044 12.4917 32.2146 12.7742 32.443 13.1188L35.9805 18.4938Z" fill="#FCD307"/>
<path d="M38.7916 25.4922V28.0484C38.7916 28.7115 38.5282 29.3474 38.0594 29.8162C37.5906 30.285 36.9547 30.5484 36.2916 30.5484H33.9854C33.9854 31.3955 33.6489 32.2078 33.05 32.8068C32.451 33.4057 31.6387 33.7422 30.7916 33.7422C29.9446 33.7422 29.1323 33.4057 28.5333 32.8068C27.9344 32.2078 27.5979 31.3955 27.5979 30.5484H13.2604C13.2604 31.3955 12.9239 32.2078 12.325 32.8068C11.726 33.4057 10.9137 33.7422 10.0666 33.7422C9.21961 33.7422 8.40727 33.4057 7.80832 32.8068C7.20938 32.2078 6.87289 31.3955 6.87289 30.5484C6.86829 30.3537 6.88295 30.159 6.91664 29.9672V29.8484C6.91664 29.7672 6.95414 29.6922 6.97914 29.6172V29.5859C6.97914 29.5172 7.02289 29.4547 7.04789 29.3859C7.17499 29.1113 7.34131 28.8565 7.54164 28.6297C7.61664 28.5359 7.69164 28.4422 7.77289 28.3547C7.85579 28.2667 7.94342 28.1832 8.03539 28.1047C8.12129 28.0351 8.21101 27.9704 8.30414 27.9109C8.40378 27.8412 8.5082 27.7785 8.61664 27.7234H8.66039C8.74503 27.6796 8.83276 27.642 8.92289 27.6109H8.97914C9.05396 27.5794 9.13132 27.5543 9.21039 27.5359L9.36039 27.4984C9.42579 27.4799 9.49273 27.4674 9.56039 27.4609C9.72107 27.4304 9.88435 27.4158 10.0479 27.4172V25.5422L38.7916 25.4922Z" fill="#64C4ED"/>
<path d="M33.9436 31.0585C34.2263 29.3174 33.044 27.6769 31.3029 27.3942C29.5618 27.1116 27.9213 28.2939 27.6387 30.035C27.3561 31.7761 28.5384 33.4166 30.2794 33.6992C32.0205 33.9818 33.661 32.7995 33.9436 31.0585Z" fill="#FCD307"/>
<path d="M13.2604 30.5563C13.2604 31.4034 12.9239 32.2157 12.325 32.8147C11.726 33.4136 10.9137 33.7501 10.0666 33.7501C9.21961 33.7501 8.40727 33.4136 7.80832 32.8147C7.20938 32.2157 6.87289 31.4034 6.87289 30.5563C6.86829 30.3616 6.88295 30.1669 6.91664 29.9751V29.8563C6.91664 29.7751 6.95414 29.7001 6.97914 29.6251V29.5938C6.97914 29.5251 7.02289 29.4626 7.04789 29.3938C7.17499 29.1192 7.34131 28.8644 7.54164 28.6376C7.61664 28.5438 7.69164 28.4501 7.77289 28.3626C7.85579 28.2746 7.94342 28.1911 8.03539 28.1126C8.12129 28.043 8.21101 27.9783 8.30414 27.9188C8.40378 27.8491 8.5082 27.7864 8.61664 27.7313C8.71588 27.6812 8.81817 27.6374 8.92289 27.6001H8.97914C9.05396 27.5686 9.13132 27.5435 9.21039 27.5251L9.36039 27.4876C9.42579 27.4691 9.49273 27.4565 9.56039 27.4501C9.72107 27.4196 9.88436 27.4049 10.0479 27.4063C10.8906 27.4013 11.7012 27.7296 12.303 28.3196C12.9047 28.9097 13.2489 29.7137 13.2604 30.5563Z" fill="#FCD307"/>
<path d="M7.44199 16.5938V24.2438C7.44199 24.5753 7.3103 24.8932 7.07588 25.1276C6.84146 25.3621 6.52351 25.4938 6.19199 25.4938H4.22949V15.3438C5.11267 16.1372 6.25477 16.5816 7.44199 16.5938Z" fill="#E8BC03"/>
<path opacity="0.2" d="M4.22949 15.3438V25.4938H5.66699V16.2375C5.13972 16.025 4.65334 15.7226 4.22949 15.3438Z" fill="black"/>
<path opacity="0.5" d="M20.4305 13.5C20.4305 13.8995 20.2718 14.2826 19.9893 14.5651C19.7068 14.8476 19.3237 15.0062 18.9242 15.0062H17.0117C16.0172 15.0062 15.0633 15.4013 14.3601 16.1046C13.6568 16.8079 13.2617 17.7617 13.2617 18.7562V19.6625C13.2362 20.072 13.0555 20.4564 12.7565 20.7373C12.4575 21.0183 12.0626 21.1747 11.6523 21.1747C11.2421 21.1747 10.8472 21.0183 10.5482 20.7373C10.2492 20.4564 10.0685 20.072 10.043 19.6625V15.8125C10.697 15.4021 11.2447 14.8427 11.6412 14.1801C12.0377 13.5174 12.2717 12.7704 12.3242 12H18.9242C19.3226 12 19.7048 12.1578 19.9871 12.439C20.2694 12.7201 20.4288 13.1016 20.4305 13.5Z" fill="white"/>
<path opacity="0.2" d="M38.7922 23.4562V28.0125C38.7922 28.6755 38.5288 29.3114 38.0599 29.7803C37.5911 30.2491 36.9552 30.5125 36.2922 30.5125H33.9859C33.9859 31.3595 33.6494 32.1719 33.0505 32.7708C32.4516 33.3698 31.6392 33.7062 30.7922 33.7062C29.9451 33.7062 29.1328 33.3698 28.5339 32.7708C27.9349 32.1719 27.5984 31.3595 27.5984 30.5125H13.2609C13.2609 31.3595 12.9244 32.1719 12.3255 32.7708C11.7266 33.3698 10.9142 33.7062 10.0672 33.7062C9.22014 33.7062 8.4078 33.3698 7.80885 32.7708C7.20991 32.1719 6.87343 31.3595 6.87343 30.5125C6.87044 30.3261 6.88509 30.1399 6.91718 29.9563V29.8375C6.91718 29.7562 6.95468 29.6812 6.97968 29.6062V29.575C6.97968 29.5062 7.02343 29.4437 7.04843 29.375C7.17552 29.1003 7.34184 28.8456 7.54218 28.6187C7.61718 28.525 7.69218 28.4312 7.77343 28.3437C7.85632 28.2557 7.94395 28.1723 8.03593 28.0937C8.12182 28.0242 8.21154 27.9595 8.30468 27.9C8.40431 27.8302 8.50873 27.7676 8.61718 27.7125H8.66093C9.52343 27.7125 10.3672 27.6375 11.1609 27.5812C15.8256 27.327 20.4562 26.6364 24.9922 25.5187L25.4672 25.3937C31.6547 23.7062 35.2047 21.5812 37.0672 20.125L38.3734 22.0937C38.6423 22.4977 38.7878 22.9711 38.7922 23.4562Z" fill="black"/>
<path d="M8.16775 9.84375C8.33351 9.84375 8.49248 9.7779 8.60969 9.66069C8.7269 9.54348 8.79275 9.38451 8.79275 9.21875C8.79275 9.05299 8.7269 8.89402 8.60969 8.77681C8.49248 8.6596 8.33351 8.59375 8.16775 8.59375C7.63716 8.5948 7.11499 8.7265 6.64736 8.97721C6.17974 9.22791 5.78104 9.58992 5.4865 10.0313L5.36775 9.75C5.33533 9.67449 5.28835 9.6061 5.22951 9.54875C5.17066 9.49139 5.10109 9.44619 5.02477 9.41572C4.94845 9.38525 4.86688 9.37011 4.78471 9.37117C4.70254 9.37223 4.62138 9.38945 4.54587 9.42187C4.47036 9.4543 4.40198 9.50127 4.34462 9.56012C4.28727 9.61897 4.24207 9.68854 4.2116 9.76486C4.18113 9.84117 4.16599 9.92275 4.16704 10.0049C4.1681 10.0871 4.18533 10.1682 4.21775 10.2438L4.99275 12.0688C5.04154 12.1805 5.12198 12.2756 5.22416 12.3423C5.32633 12.4089 5.44577 12.4442 5.56775 12.4438C5.60921 12.4496 5.65129 12.4496 5.69275 12.4438C5.83605 12.4145 5.96456 12.336 6.05592 12.2218C6.14728 12.1076 6.1957 11.965 6.19275 11.8188C6.1944 11.2955 6.40301 10.7941 6.77303 10.424C7.14306 10.054 7.64445 9.8454 8.16775 9.84375ZM6.75525 14.8938C7.28164 14.8916 7.79949 14.7605 8.2636 14.5121C8.7277 14.2638 9.12395 13.9055 9.41775 13.4688L9.5365 13.75C9.60242 13.9013 9.7255 14.0204 9.87889 14.0813C10.0323 14.1421 10.2035 14.1399 10.3553 14.075C10.5077 14.0103 10.6282 13.8877 10.6903 13.7342C10.7524 13.5806 10.751 13.4088 10.6865 13.2563L9.9115 11.4313C9.85508 11.2988 9.75467 11.1899 9.62724 11.1229C9.49981 11.056 9.35316 11.035 9.21209 11.0637C9.07101 11.0924 8.94415 11.1688 8.85294 11.2802C8.76174 11.3916 8.71178 11.531 8.7115 11.675C8.7115 12.1988 8.50342 12.7012 8.13304 13.0715C7.76265 13.4419 7.2603 13.65 6.7365 13.65C6.57074 13.65 6.41177 13.7158 6.29456 13.8331C6.17735 13.9503 6.1115 14.1092 6.1115 14.275C6.1115 14.4408 6.17735 14.5997 6.29456 14.7169C6.41177 14.8342 6.57074 14.9 6.7365 14.9L6.75525 14.8938Z" fill="#0C084C"/>
<path d="M38.8923 21.7597L36.5048 18.1534L34.5735 15.2409L32.9298 12.7784C32.5613 12.2273 32.024 11.8106 31.3985 11.5909C31.0563 11.4645 30.6946 11.3989 30.3298 11.3972H12.3235C12.2882 11.3942 12.2526 11.3942 12.2173 11.3972H12.1048C12.0661 11.4119 12.0302 11.433 11.9985 11.4597C11.9652 11.4747 11.9337 11.4936 11.9048 11.5159C11.8701 11.5527 11.8388 11.5924 11.811 11.6347C11.811 11.6347 11.7735 11.6784 11.761 11.7034C11.7272 11.7764 11.706 11.8546 11.6985 11.9347C11.6869 12.1044 11.6661 12.2734 11.636 12.4409C11.5253 13.0175 11.2973 13.5653 10.9661 14.0501C10.635 14.535 10.2078 14.9467 9.71103 15.2597C9.02854 15.6771 8.24224 15.8937 7.44228 15.8847C7.15447 15.8817 6.86766 15.8503 6.58603 15.7909C5.54529 15.5849 4.61879 14.9981 3.98764 14.1453C3.35649 13.2926 3.06604 12.2351 3.17308 11.1795C3.28012 10.124 3.77694 9.14635 4.56644 8.43763C5.35594 7.72891 6.38136 7.3401 7.44228 7.34718C8.19039 7.34929 8.92493 7.54711 9.57292 7.92099C10.2209 8.29488 10.7598 8.8318 11.136 9.47843C11.1769 9.55004 11.2315 9.61287 11.2967 9.6633C11.3619 9.71373 11.4364 9.75076 11.516 9.77225C11.5956 9.79375 11.6787 9.79928 11.7604 9.78854C11.8421 9.7778 11.9209 9.751 11.9923 9.70968C12.0634 9.66832 12.1256 9.61335 12.1754 9.54789C12.2252 9.48244 12.2616 9.4078 12.2825 9.32826C12.3034 9.24871 12.3084 9.16582 12.2972 9.08434C12.286 9.00286 12.2589 8.92439 12.2173 8.85343C11.8096 8.19241 11.2669 7.62498 10.6247 7.18831C9.98253 6.75165 9.2553 6.45561 8.49071 6.31959C7.72611 6.18357 6.9414 6.21064 6.188 6.39902C5.43459 6.5874 4.72949 6.93285 4.1189 7.41273C3.50831 7.89261 3.006 8.49609 2.64489 9.18363C2.28378 9.87116 2.07201 10.6272 2.02347 11.4023C1.97493 12.1774 2.09071 12.954 2.36322 13.6812C2.63573 14.4084 3.05882 15.0699 3.60478 15.6222V22.5534C3.60478 22.7192 3.67062 22.8782 3.78783 22.9954C3.90504 23.1126 4.06402 23.1784 4.22978 23.1784C4.39554 23.1784 4.55451 23.1126 4.67172 22.9954C4.78893 22.8782 4.85478 22.7192 4.85478 22.5534V16.5409L4.94853 16.5847L5.19853 16.7034L5.41103 16.7909L5.66728 16.8909L5.88603 16.9597L6.15478 17.0284L6.37978 17.0784L6.65478 17.1222H6.81728V24.2409C6.81728 24.4067 6.75143 24.5657 6.63422 24.6829C6.51701 24.8001 6.35804 24.8659 6.19228 24.8659H4.22978C4.06402 24.8659 3.90504 24.9318 3.78783 25.049C3.67062 25.1662 3.60478 25.3252 3.60478 25.4909V29.2972C3.60478 29.7945 3.80232 30.2714 4.15395 30.623C4.50558 30.9746 4.98249 31.1722 5.47978 31.1722H6.29228C6.4118 31.8979 6.73968 32.5732 7.23603 33.1159H5.83603C5.67027 33.1159 5.51129 33.1818 5.39408 33.299C5.27687 33.4162 5.21103 33.5752 5.21103 33.7409C5.21103 33.9067 5.27687 34.0657 5.39408 34.1829C5.51129 34.3001 5.67027 34.3659 5.83603 34.3659H10.0423C10.2517 34.3622 10.4606 34.3434 10.6673 34.3097H10.7423C10.938 34.2709 11.1302 34.2165 11.3173 34.1472H11.411C11.5886 34.074 11.7619 33.9905 11.9298 33.8972L12.011 33.8472C12.1974 33.7335 12.375 33.6061 12.5423 33.4659L12.5923 33.4222C12.7468 33.2874 12.891 33.1412 13.0235 32.9847C13.1543 32.8261 13.2714 32.6568 13.3735 32.4784L13.411 32.4159C13.506 32.2455 13.5875 32.0678 13.6548 31.8847C13.6574 31.8535 13.6574 31.8221 13.6548 31.7909C13.7237 31.6068 13.774 31.4163 13.8048 31.2222C13.8011 31.2078 13.8011 31.1928 13.8048 31.1784H26.9923C26.996 31.1928 26.996 31.2078 26.9923 31.2222C27.0231 31.4163 27.0733 31.6068 27.1423 31.7909C27.1396 31.8221 27.1396 31.8535 27.1423 31.8847C27.2096 32.0678 27.2911 32.2455 27.386 32.4159L27.4235 32.4784C27.5257 32.6568 27.6428 32.8261 27.7735 32.9847L27.8985 33.1222H25.3985C25.2328 33.1222 25.0738 33.188 24.9566 33.3052C24.8394 33.4224 24.7735 33.5814 24.7735 33.7472C24.7735 33.9129 24.8394 34.0719 24.9566 34.1891C25.0738 34.3063 25.2328 34.3722 25.3985 34.3722H30.711C31.7238 34.3722 32.6951 33.9698 33.4113 33.2537C34.1274 32.5375 34.5298 31.5662 34.5298 30.5534C34.5298 29.5406 34.1274 28.5693 33.4113 27.8532C32.6951 27.137 31.7238 26.7347 30.711 26.7347C30.5016 26.7384 30.2927 26.7572 30.086 26.7909H30.011C29.8153 26.8297 29.6231 26.8841 29.436 26.9534H29.3423C29.1647 27.0266 28.9915 27.1101 28.8235 27.2034L28.7423 27.2534C28.5764 27.3573 28.4177 27.4721 28.2673 27.5972L28.2173 27.6409C28.0627 27.7757 27.9185 27.9219 27.786 28.0784C27.6553 28.237 27.5382 28.4063 27.436 28.5847L27.3985 28.6472C27.3036 28.8176 27.2221 28.9953 27.1548 29.1784C27.1521 29.2096 27.1521 29.241 27.1548 29.2722C27.0887 29.4571 27.0385 29.6474 27.0048 29.8409C27.0085 29.8553 27.0085 29.8703 27.0048 29.8847H26.1048V26.1159H38.1673V28.0472C38.1675 28.1711 38.1549 28.2946 38.1298 28.4159C38.1298 28.4659 38.1298 28.5159 38.086 28.5722C38.069 28.6338 38.0481 28.6944 38.0235 28.7534C38.0002 28.8114 37.9731 28.8678 37.9423 28.9222C37.9423 28.9722 37.8923 29.0222 37.861 29.0659C37.8271 29.1185 37.7895 29.1686 37.7485 29.2159C37.711 29.2597 37.6798 29.3034 37.6423 29.3409L37.511 29.4597C37.4683 29.5009 37.4224 29.5385 37.3735 29.5722C37.3294 29.6072 37.2811 29.6366 37.2298 29.6597C37.1757 29.6946 37.1193 29.7259 37.061 29.7534L36.911 29.8097L36.7235 29.8659H36.5548C36.4674 29.8724 36.3797 29.8724 36.2923 29.8659C36.1265 29.8659 35.9675 29.9318 35.8503 30.049C35.7331 30.1662 35.6673 30.3252 35.6673 30.4909C35.6673 30.6567 35.7331 30.8157 35.8503 30.9329C35.9675 31.0501 36.1265 31.1159 36.2923 31.1159H36.4298H36.511C36.586 31.1159 36.6548 31.1159 36.7298 31.0784C36.8245 31.0678 36.9185 31.0511 37.011 31.0284C37.115 31.0037 37.2173 30.9724 37.3173 30.9347C37.4068 30.9068 37.4944 30.8734 37.5798 30.8347C37.6726 30.793 37.7623 30.7449 37.8485 30.6909C37.9298 30.6409 38.0173 30.5972 38.0923 30.5409C38.1692 30.4855 38.2423 30.4249 38.311 30.3597C38.3923 30.2909 38.4735 30.2284 38.5423 30.1597C38.611 30.0909 38.6548 30.0222 38.711 29.9472C38.781 29.8681 38.8457 29.7846 38.9048 29.6972C38.9548 29.6222 38.9923 29.5409 39.036 29.4597C39.0901 29.3692 39.1381 29.2753 39.1798 29.1784C39.2197 29.0765 39.2531 28.9721 39.2798 28.8659C39.2798 28.7784 39.336 28.6972 39.3548 28.6097C39.3952 28.4038 39.4161 28.1945 39.4173 27.9847V23.4659C39.4119 22.8582 39.2295 22.2653 38.8923 21.7597ZM33.361 30.5472C33.361 31.0552 33.2104 31.5519 32.9281 31.9743C32.6459 32.3967 32.2447 32.726 31.7753 32.9204C31.3059 33.1148 30.7894 33.1657 30.2911 33.0666C29.7929 32.9674 29.3351 32.7228 28.9759 32.3636C28.6167 32.0043 28.372 31.5466 28.2729 31.0483C28.1738 30.55 28.2246 30.0335 28.4191 29.5642C28.6135 29.0948 28.9427 28.6936 29.3652 28.4113C29.7876 28.1291 30.2842 27.9784 30.7923 27.9784C31.4736 27.9784 32.1269 28.2491 32.6087 28.7308C33.0904 29.2125 33.361 29.8659 33.361 30.5472ZM4.85478 29.2972V26.1159H6.19228C6.68956 26.1159 7.16647 25.9184 7.5181 25.5667C7.86973 25.2151 8.06728 24.7382 8.06728 24.2409V17.1472H8.14853L8.42978 17.0972C8.57978 17.0972 8.72353 17.0409 8.87353 17.0034L9.16103 16.9159L9.41728 16.8347V26.7847L9.20478 26.8284L9.06728 26.8659C8.96668 26.8852 8.86827 26.9145 8.77353 26.9534L8.68603 26.9909C8.5635 27.0339 8.44441 27.0862 8.32978 27.1472C8.19891 27.2119 8.0735 27.2872 7.95478 27.3722C7.83838 27.4427 7.72764 27.5221 7.62353 27.6097H7.58603C7.47978 27.7034 7.38603 27.7972 7.29228 27.8972C7.19853 27.9972 7.11103 28.1034 7.01728 28.2222C6.79591 28.5132 6.61898 28.8354 6.49228 29.1784C6.49228 29.2409 6.44853 29.2972 6.42978 29.3534V29.3847C6.39439 29.4934 6.36517 29.6039 6.34228 29.7159V29.8159C6.33926 29.8408 6.33926 29.866 6.34228 29.8909H5.47978C5.31929 29.8911 5.16488 29.8296 5.04853 29.719C4.93217 29.6085 4.8628 29.4575 4.85478 29.2972ZM7.49853 30.5472C7.49759 30.3899 7.51224 30.2328 7.54228 30.0784V29.9909C7.54228 29.9347 7.57353 29.8784 7.58603 29.8284C7.58861 29.8056 7.58861 29.7825 7.58603 29.7597L7.63603 29.6159C7.71647 29.4046 7.82813 29.2066 7.96728 29.0284C8.03603 28.9409 8.09853 28.8597 8.16728 28.7847C8.23603 28.7097 8.30478 28.6472 8.37978 28.5847C8.44562 28.5308 8.51448 28.4807 8.58603 28.4347C8.66075 28.3816 8.74026 28.3355 8.82353 28.2972C8.89757 28.2555 8.97491 28.2199 9.05478 28.1909C9.10478 28.1909 9.10478 28.1909 9.14228 28.1534L9.28603 28.1097L9.45478 28.0659H9.54228H9.61103C9.72441 28.045 9.83948 28.0345 9.95478 28.0347H10.0423C10.5503 28.0347 11.047 28.1853 11.4694 28.4676C11.8918 28.7498 12.2211 29.151 12.4155 29.6204C12.6099 30.0898 12.6608 30.6063 12.5617 31.1046C12.4626 31.6028 12.2179 32.0606 11.8587 32.4198C11.4994 32.7791 11.0417 33.0237 10.5434 33.1228C10.0451 33.2219 9.52864 33.1711 9.05926 32.9766C8.58988 32.7822 8.1887 32.453 7.90644 32.0305C7.62418 31.6081 7.47353 31.1115 7.47353 30.6034L7.49853 30.5472ZM13.836 29.9222C13.8332 29.9056 13.8332 29.8887 13.836 29.8722C13.8047 29.701 13.7629 29.532 13.711 29.3659C13.6978 29.3378 13.6874 29.3085 13.6798 29.2784C13.6235 29.1284 13.561 28.9847 13.4923 28.8409L13.4548 28.7659C13.3713 28.6151 13.2795 28.469 13.1798 28.3284L13.1173 28.2409C13.0112 28.1025 12.8964 27.9709 12.7735 27.8472C12.6476 27.7242 12.514 27.6094 12.3735 27.5034L12.286 27.4409C12.1463 27.3398 12.0002 27.248 11.8485 27.1659L11.7673 27.1347C11.6267 27.0606 11.4804 26.9979 11.3298 26.9472H11.2485C11.0789 26.893 10.9055 26.8513 10.7298 26.8222H10.6798V26.1159H21.7673C21.933 26.1159 22.092 26.0501 22.2092 25.9329C22.3264 25.8157 22.3923 25.6567 22.3923 25.4909C22.3923 25.3252 22.3264 25.1662 22.2092 25.049C22.092 24.9318 21.933 24.8659 21.7673 24.8659H10.6673V16.1159L10.811 16.0034L10.986 15.8659L11.2923 15.5847L11.4235 15.4534C11.5629 15.3085 11.6943 15.1562 11.8173 14.9972C11.9369 14.8411 12.0475 14.6784 12.1485 14.5097L12.2423 14.3472C12.311 14.2275 12.3735 14.1044 12.4298 13.9784C12.461 13.9159 12.4923 13.8472 12.5173 13.7847C12.5423 13.7222 12.6173 13.5409 12.661 13.4159C12.7048 13.2909 12.7048 13.2847 12.7235 13.2159C12.7423 13.1472 12.8048 12.9284 12.836 12.7847C12.8673 12.6409 12.836 12.6847 12.8673 12.6347C12.8985 12.5847 12.8673 12.6347 12.8673 12.5972H24.8548V29.9222H13.836ZM26.1048 24.8659V12.6284H30.3235C30.6374 12.627 30.9469 12.7026 31.2247 12.8486C31.5026 12.9947 31.7404 13.2066 31.9173 13.4659L33.9548 16.5284L34.8485 17.8722H31.5798C31.0825 17.8722 30.6056 17.6746 30.254 17.323C29.9023 16.9714 29.7048 16.4945 29.7048 15.9972V14.6159C29.7048 14.4502 29.6389 14.2912 29.5217 14.174C29.4045 14.0568 29.2455 13.9909 29.0798 13.9909C28.914 13.9909 28.755 14.0568 28.6378 14.174C28.5206 14.2912 28.4548 14.4502 28.4548 14.6159V15.9972C28.4548 16.826 28.784 17.6208 29.3701 18.2069C29.9561 18.7929 30.751 19.1222 31.5798 19.1222H35.6673L37.8798 22.4472C38.0715 22.7521 38.1713 23.1058 38.1673 23.4659V24.8409L26.1048 24.8659Z" fill="#0C084C"/>
<path d="M30.4855 21.0156H28.2355C28.0697 21.0156 27.9107 21.0815 27.7935 21.1987C27.6763 21.3159 27.6105 21.4749 27.6105 21.6406C27.6105 21.8064 27.6763 21.9654 27.7935 22.0826C27.9107 22.1998 28.0697 22.2656 28.2355 22.2656H30.4855C30.6512 22.2656 30.8102 22.1998 30.9274 22.0826C31.0446 21.9654 31.1105 21.8064 31.1105 21.6406C31.1105 21.4749 31.0446 21.3159 30.9274 21.1987C30.8102 21.0815 30.6512 21.0156 30.4855 21.0156ZM10.3855 30.0219C10.3536 29.9971 10.3176 29.9781 10.2792 29.9656C10.242 29.9466 10.2019 29.9339 10.1605 29.9281C10.0824 29.9093 10.001 29.9093 9.92296 29.9281C9.88156 29.9339 9.84143 29.9466 9.80421 29.9656L9.69171 30.0219L9.59796 30.0969C9.53938 30.155 9.49288 30.2241 9.46115 30.3003C9.42942 30.3764 9.41309 30.4581 9.41309 30.5406C9.41309 30.6231 9.42942 30.7048 9.46115 30.781C9.49288 30.8571 9.53938 30.9263 9.59796 30.9844C9.62766 31.0113 9.65897 31.0363 9.69171 31.0594C9.72655 31.083 9.76438 31.1019 9.80421 31.1156C9.84143 31.1347 9.88156 31.1473 9.92296 31.1531H10.0417H10.1605C10.2019 31.1473 10.242 31.1347 10.2792 31.1156C10.3176 31.1031 10.3536 31.0841 10.3855 31.0594C10.4212 31.0378 10.4547 31.0127 10.4855 30.9844C10.544 30.9263 10.5905 30.8571 10.6223 30.781C10.654 30.7048 10.6703 30.6231 10.6703 30.5406C10.6703 30.4581 10.654 30.3764 10.6223 30.3003C10.5905 30.2241 10.544 30.155 10.4855 30.0969L10.3855 30.0219ZM30.2167 30.3344C30.1836 30.4092 30.1666 30.4901 30.1666 30.5719C30.1666 30.6537 30.1836 30.7346 30.2167 30.8094C30.2465 30.8861 30.2911 30.9562 30.348 31.0156C30.4061 31.0742 30.4752 31.1207 30.5513 31.1524C30.6275 31.1842 30.7092 31.2005 30.7917 31.2005C30.8742 31.2005 30.9559 31.1842 31.0321 31.1524C31.1082 31.1207 31.1774 31.0742 31.2355 31.0156C31.2924 30.9562 31.337 30.8861 31.3667 30.8094C31.3998 30.7346 31.4169 30.6537 31.4169 30.5719C31.4169 30.4901 31.3998 30.4092 31.3667 30.3344C31.3351 30.2586 31.2907 30.1889 31.2355 30.1281C31.1774 30.0695 31.1082 30.023 31.0321 29.9913C30.9559 29.9596 30.8742 29.9433 30.7917 29.9433C30.7092 29.9433 30.6275 29.9596 30.5513 29.9913C30.4752 30.023 30.4061 30.0695 30.348 30.1281C30.2911 30.1876 30.2465 30.2577 30.2167 30.3344ZM22.8292 33.1094H21.2917C21.1259 33.1094 20.967 33.1752 20.8498 33.2924C20.7326 33.4096 20.6667 33.5686 20.6667 33.7344C20.6667 33.9001 20.7326 34.0591 20.8498 34.1763C20.967 34.2935 21.1259 34.3594 21.2917 34.3594H22.8042C22.97 34.3594 23.1289 34.2935 23.2462 34.1763C23.3634 34.0591 23.4292 33.9001 23.4292 33.7344C23.4292 33.5686 23.3634 33.4096 23.2462 33.2924C23.1289 33.1752 22.97 33.1094 22.8042 33.1094H22.8292Z" fill="#0C084C"/>
</svg>
