<svg width="20" height="20" viewBox="0 0 20 20" fill="none" xmlns="http://www.w3.org/2000/svg">
<path d="M3.73047 4.06178H16.2305C16.3765 4.06172 16.5224 4.07098 16.6672 4.08952C16.6181 3.7449 16.4997 3.41379 16.3192 3.11616C16.1387 2.81852 15.8998 2.56053 15.6168 2.35772C15.3339 2.15492 15.0129 2.01152 14.673 1.93615C14.3332 1.86078 13.9816 1.85502 13.6395 1.91921L3.35938 3.67428H3.34766C2.70237 3.79768 2.12854 4.16277 1.74336 4.69499C2.32367 4.28222 3.01834 4.06086 3.73047 4.06178ZM16.2305 4.99928H3.73047C3.06765 5.00001 2.43219 5.26363 1.9635 5.73232C1.49482 6.201 1.23119 6.83647 1.23047 7.49928V14.9993C1.23119 15.6621 1.49482 16.2976 1.9635 16.7663C2.43219 17.2349 3.06765 17.4986 3.73047 17.4993H16.2305C16.8933 17.4986 17.5288 17.2349 17.9974 16.7663C18.4661 16.2976 18.7297 15.6621 18.7305 14.9993V7.49928C18.7297 6.83647 18.4661 6.201 17.9974 5.73232C17.5288 5.26363 16.8933 5.00001 16.2305 4.99928ZM14.375 12.4993C14.1278 12.4993 13.8861 12.426 13.6805 12.2886C13.475 12.1513 13.3148 11.956 13.2201 11.7276C13.1255 11.4992 13.1008 11.2479 13.149 11.0054C13.1972 10.7629 13.3163 10.5402 13.4911 10.3654C13.6659 10.1906 13.8887 10.0715 14.1311 10.0233C14.3736 9.97507 14.6249 9.99983 14.8534 10.0944C15.0818 10.189 15.277 10.3493 15.4143 10.5548C15.5517 10.7604 15.625 11.0021 15.625 11.2493C15.625 11.5808 15.4933 11.8987 15.2589 12.1332C15.0245 12.3676 14.7065 12.4993 14.375 12.4993Z" fill="#847C3D"/>
<path d="M1.25 10.1406V6.25391C1.25 5.40742 1.71875 3.98828 3.3457 3.68086C4.72656 3.42187 6.09375 3.42188 6.09375 3.42188C6.09375 3.42188 6.99219 4.04688 6.25 4.04688C5.50781 4.04688 5.52734 5.00391 6.25 5.00391C6.97266 5.00391 6.25 5.92188 6.25 5.92188L3.33984 9.22266L1.25 10.1406Z" fill="#847C3D"/>
</svg>
