<svg width="18" height="17" viewBox="0 0 18 17" fill="none" xmlns="http://www.w3.org/2000/svg">
<path d="M1.97238 16.3966H16.028C17.4652 16.3966 18.3612 14.838 17.6426 13.5967L10.6148 1.45441C9.89614 0.213114 8.1042 0.213114 7.38555 1.45441L0.357764 13.5967C-0.36088 14.838 0.535092 16.3966 1.97238 16.3966ZM9.00017 9.86349C8.48685 9.86349 8.06686 9.4435 8.06686 8.93018V7.06357C8.06686 6.55025 8.48685 6.13027 9.00017 6.13027C9.51348 6.13027 9.93347 6.55025 9.93347 7.06357V8.93018C9.93347 9.4435 9.51348 9.86349 9.00017 9.86349ZM9.93347 13.5967H8.06686V11.7301H9.93347V13.5967Z" fill="#CB3A31"/>
</svg>
