<svg width="200" height="200" viewBox="0 0 200 200" fill="none" xmlns="http://www.w3.org/2000/svg">
<g clip-path="url(#clip0_3365_74781)">
<path d="M51.6793 178.395H157.529C177.596 178.395 189.221 155.697 177.473 139.453C170.377 129.643 171.496 116.135 180.111 107.62L183.921 103.855C199.948 88.0117 194.098 60.9117 172.956 53.07L98.3084 25.3805C86.5064 21.0013 73.7418 28.9284 72.4585 41.4325C71.4022 51.7013 62.4105 59.3055 52.0918 58.6513L47.0064 58.3284C32.8668 57.4325 20.9064 68.643 20.9064 82.7888V92.745C20.9064 100.541 18.1501 108.172 13.2168 114.214C0.979282 129.199 3.0897 151.48 18.146 163.643L24.5314 168.801C32.2147 175.01 41.796 178.395 51.6793 178.395Z" fill="#E7E8FF"/>
<path d="M155.921 155.407C149.577 154.99 143.939 170.729 142.177 178.392H146.406C152.043 171.077 162.264 155.825 155.921 155.407Z" fill="#032068"/>
<path fill-rule="evenodd" clip-rule="evenodd" d="M137.894 177.435H144.815C148.581 170.048 153.5 159.046 156.173 149.739C157.527 145.027 158.292 140.794 158.067 137.694C157.954 136.146 157.598 134.925 156.986 134.069C156.388 133.231 155.521 132.712 154.292 132.594C151.846 132.356 149.646 133.927 147.671 136.896C145.706 139.854 144.05 144.079 142.686 148.864C140.013 158.237 138.49 169.625 137.894 177.435ZM146.938 136.421C148.967 133.367 151.434 131.446 154.377 131.731C155.846 131.873 156.948 132.514 157.702 133.569C158.444 134.604 158.823 136.002 158.942 137.631C159.177 140.887 158.377 145.242 157.017 149.975C154.292 159.458 149.271 170.652 145.477 178.064L145.354 178.302H136.95L136.984 177.837C137.559 169.985 139.094 158.267 141.842 148.629C143.215 143.814 144.9 139.487 146.938 136.421Z" fill="#032068"/>
<path fill-rule="evenodd" clip-rule="evenodd" d="M153.171 138.81L148.157 156.095L152.557 153.972L152.942 154.752L147.832 157.218L141.807 177.987L140.963 177.749L143.967 167.399L142.025 161.549L142.859 161.279L144.396 165.914L149.482 148.383L147.061 142.779L147.867 142.439L149.865 147.062L152.327 138.57L153.171 138.81Z" fill="#032068"/>
<path fill-rule="evenodd" clip-rule="evenodd" d="M54.5879 43.6906C62.3441 43.6906 68.6337 49.9781 68.6337 57.7365C68.6337 65.4927 62.3441 71.7802 54.5879 71.7802C51.9087 71.7802 49.4046 71.0302 47.2754 69.7281L47.1441 69.649L42.7233 71.2177C42.2483 71.3865 41.7712 70.9656 41.8816 70.4719L42.9546 65.6073L42.8775 65.4927C41.4025 63.2698 40.5441 60.6031 40.5441 57.7365C40.5441 49.9781 46.8316 43.6906 54.5879 43.6906ZM69.2775 57.7365C69.2775 49.624 62.7004 43.0469 54.5879 43.0469C46.4754 43.0469 39.9004 49.624 39.9004 57.7365C39.9004 60.6844 40.7691 63.4323 42.2671 65.7344L41.2525 70.3323C41.0337 71.3198 41.9858 72.1615 42.94 71.824L47.0712 70.3573C49.2712 71.6698 51.8421 72.424 54.5879 72.424C62.7004 72.424 69.2775 65.8469 69.2775 57.7365Z" fill="#032068"/>
<path d="M54.5185 57.3516C58.533 57.3516 61.8435 60.4099 62.3122 64.3557C62.3768 64.8849 61.9372 65.3203 61.4039 65.3203H47.6351C47.0997 65.3203 46.6622 64.8849 46.7247 64.3557C47.1935 60.4099 50.5039 57.3516 54.5185 57.3516Z" fill="#FFD700"/>
<path d="M50.8184 52.6875C50.8184 54.7583 52.4975 56.4354 54.5684 56.4354C56.6392 56.4354 58.3184 54.7583 58.3184 52.6875C58.3184 50.6167 56.6392 48.9375 54.5684 48.9375C52.4975 48.9375 50.8184 50.6167 50.8184 52.6875Z" fill="#FFD700"/>
<path fill-rule="evenodd" clip-rule="evenodd" d="M97.0813 60.8828C80.6313 60.8828 67.2959 74.2224 67.2959 90.6786V113.612C67.2959 114.633 68.123 115.462 69.1459 115.462H74.3563C75.3771 115.462 76.2042 114.633 76.2042 113.612V90.1224C76.2042 78.587 85.5501 69.237 97.0813 69.237C108.61 69.237 117.956 78.587 117.956 90.1224V96.3474C117.956 97.3703 118.785 98.1974 119.806 98.1974H125.017C126.038 98.1974 126.865 97.3703 126.865 96.3474V90.6786C126.865 74.2224 113.529 60.8828 97.0813 60.8828Z" fill="#032068"/>
<mask id="mask0_3365_74781" style="mask-type:luminance" maskUnits="userSpaceOnUse" x="55" y="107" width="84" height="72">
<path d="M55.4668 107.727H138.667V178.993H55.4668V107.727Z" fill="white"/>
</mask>
<g mask="url(#mask0_3365_74781)">
<path fill-rule="evenodd" clip-rule="evenodd" d="M55.5459 110.621C55.5459 109.26 56.6501 108.156 58.0105 108.156H136.15C137.513 108.156 138.615 109.26 138.615 110.621V176.538C138.615 177.9 137.513 179.002 136.15 179.002H58.0105C56.6501 179.002 55.5459 177.9 55.5459 176.538V110.621ZM58.0105 109.39C57.3292 109.39 56.7792 109.942 56.7792 110.621V176.538C56.7792 177.219 57.3292 177.771 58.0105 177.771H136.15C136.831 177.771 137.383 177.219 137.383 176.538V110.621C137.383 109.942 136.831 109.39 136.15 109.39H58.0105Z" fill="#032068"/>
</g>
<path fill-rule="evenodd" clip-rule="evenodd" d="M101.789 145.543C103.5 144.164 104.596 142.052 104.596 139.683C104.596 135.531 101.231 132.164 97.0811 132.164C92.929 132.164 89.5645 135.531 89.5645 139.683C89.5645 142.264 90.8645 144.541 92.8457 145.895L91.1686 152.941C90.9186 153.989 91.7145 154.997 92.7936 154.997H101.925C103.004 154.997 103.8 153.989 103.55 152.941L101.789 145.543Z" fill="#FFD700"/>
<path fill-rule="evenodd" clip-rule="evenodd" d="M54.3246 43.2026C62.4975 43.2026 69.1225 49.8276 69.1225 58.0005C69.1225 66.1714 62.4975 72.7964 54.3246 72.7964C51.5017 72.7964 48.8642 72.0068 46.6204 70.6359L46.4829 70.5505L41.8246 72.2026C41.3246 72.3818 40.8225 71.938 40.9371 71.4172L42.0684 66.2922L41.9871 66.1734C40.4329 63.8297 39.5288 61.0214 39.5288 58.0005C39.5288 49.8276 46.1538 43.2026 54.3246 43.2026ZM69.7996 58.0005C69.7996 49.4526 62.8725 42.5234 54.3246 42.5234C45.7788 42.5234 38.8496 49.4526 38.8496 58.0005C38.8496 61.1068 39.7663 64.0026 41.3434 66.4255L40.2746 71.2714C40.0454 72.3109 41.0475 73.1984 42.0517 72.8422L46.4059 71.2984C48.7225 72.6797 51.4329 73.4755 54.3246 73.4755C62.8725 73.4755 69.7996 66.5464 69.7996 58.0005Z" fill="#032068"/>
<path d="M54.2541 57.5938C58.4832 57.5938 61.9707 60.8167 62.4645 64.9729C62.5312 65.5313 62.0687 65.9896 61.5082 65.9896H46.9999C46.4374 65.9896 45.9749 65.5313 46.0416 64.9729C46.5353 60.8167 50.0249 57.5938 54.2541 57.5938Z" fill="#FFD700"/>
<path d="M50.3545 52.6844C50.3545 54.8656 52.1232 56.6344 54.3045 56.6344C56.4878 56.6344 58.2566 54.8656 58.2566 52.6844C58.2566 50.501 56.4878 48.7344 54.3045 48.7344C52.1232 48.7344 50.3545 50.501 50.3545 52.6844Z" fill="#FFD700"/>
<path d="M134.492 86.5859H195.648C195.809 86.5859 195.963 86.6172 196.113 86.6776C196.261 86.7401 196.392 86.8276 196.507 86.9422C196.621 87.0547 196.709 87.1859 196.769 87.3359C196.832 87.4839 196.863 87.6401 196.863 87.8005V158.573C196.863 158.734 196.832 158.888 196.769 159.038C196.709 159.186 196.621 159.317 196.507 159.432C196.392 159.546 196.261 159.634 196.113 159.694C195.963 159.757 195.809 159.788 195.648 159.788H134.492C134.332 159.788 134.177 159.757 134.027 159.694C133.879 159.634 133.748 159.546 133.634 159.432C133.519 159.317 133.432 159.186 133.371 159.038C133.309 158.888 133.277 158.734 133.277 158.573V87.8005C133.277 87.6401 133.309 87.4839 133.371 87.3359C133.432 87.1859 133.519 87.0547 133.634 86.9422C133.748 86.8276 133.879 86.7401 134.027 86.6776C134.177 86.6172 134.332 86.5859 134.492 86.5859Z" stroke="#032068" stroke-width="0.810049"/>
<path d="M145.179 104.758H185.494C185.657 104.758 185.811 104.789 185.961 104.849C186.109 104.912 186.24 104.999 186.354 105.114C186.467 105.229 186.557 105.36 186.617 105.508C186.679 105.656 186.711 105.812 186.711 105.972V113.16C186.711 113.322 186.679 113.477 186.617 113.624C186.557 113.774 186.467 113.906 186.354 114.02C186.24 114.133 186.109 114.22 185.961 114.283C185.811 114.345 185.657 114.374 185.494 114.377H145.179C145.017 114.374 144.863 114.345 144.715 114.283C144.565 114.22 144.434 114.133 144.319 114.02C144.207 113.906 144.119 113.774 144.057 113.624C143.994 113.477 143.965 113.322 143.965 113.16V105.972C143.965 105.812 143.994 105.656 144.057 105.508C144.119 105.36 144.207 105.229 144.319 105.114C144.434 104.999 144.565 104.912 144.715 104.849C144.863 104.789 145.017 104.758 145.179 104.758Z" stroke="#E7E8FF" stroke-width="0.810049"/>
<path d="M145.179 124.523H185.494C185.657 124.523 185.811 124.553 185.961 124.615C186.109 124.678 186.24 124.765 186.354 124.878C186.467 124.992 186.557 125.123 186.617 125.273C186.679 125.421 186.711 125.578 186.711 125.738V132.926C186.711 133.086 186.679 133.242 186.617 133.39C186.557 133.54 186.467 133.671 186.354 133.784C186.24 133.898 186.109 133.986 185.961 134.048C185.811 134.109 185.657 134.14 185.494 134.14H145.179C145.017 134.14 144.863 134.109 144.715 134.048C144.565 133.986 144.434 133.898 144.319 133.784C144.207 133.671 144.119 133.54 144.057 133.39C143.994 133.242 143.965 133.086 143.965 132.926V125.738C143.965 125.578 143.994 125.421 144.057 125.273C144.119 125.123 144.207 124.992 144.319 124.878C144.434 124.765 144.565 124.678 144.715 124.615C144.863 124.553 145.017 124.523 145.179 124.523Z" stroke="#E7E8FF" stroke-width="0.810049"/>
<path d="M155.334 141.625H175.344C175.505 141.625 175.661 141.656 175.809 141.717C175.959 141.779 176.09 141.867 176.203 141.981C176.317 142.094 176.405 142.225 176.467 142.375C176.528 142.523 176.559 142.679 176.559 142.84V148.958C176.559 149.119 176.528 149.275 176.467 149.423C176.405 149.573 176.317 149.704 176.203 149.819C176.09 149.931 175.959 150.019 175.809 150.081C175.661 150.144 175.505 150.173 175.344 150.173H155.334C155.171 150.173 155.017 150.144 154.867 150.081C154.719 150.019 154.588 149.931 154.473 149.819C154.359 149.704 154.271 149.573 154.211 149.423C154.148 149.275 154.117 149.119 154.117 148.958V142.84C154.117 142.679 154.148 142.523 154.211 142.375C154.271 142.225 154.359 142.094 154.473 141.981C154.588 141.867 154.719 141.779 154.867 141.717C155.017 141.656 155.171 141.625 155.334 141.625Z" fill="#032068"/>
<path d="M158.389 95.6719H172.283C172.424 95.6719 172.56 95.699 172.691 95.7531C172.822 95.8073 172.937 95.8844 173.039 95.9844C173.139 96.0844 173.216 96.201 173.27 96.3323C173.324 96.4615 173.352 96.599 173.352 96.7406C173.352 96.8823 173.324 97.0177 173.27 97.149C173.216 97.2802 173.139 97.3969 173.039 97.4969C172.937 97.5969 172.822 97.674 172.691 97.7281C172.56 97.7823 172.424 97.8094 172.283 97.8094H158.389C158.247 97.8094 158.112 97.7823 157.981 97.7281C157.849 97.674 157.735 97.5969 157.635 97.4969C157.535 97.3969 157.458 97.2802 157.404 97.149C157.349 97.0177 157.32 96.8823 157.322 96.7406C157.32 96.599 157.349 96.4615 157.404 96.3323C157.458 96.201 157.535 96.0844 157.635 95.9844C157.735 95.8844 157.849 95.8073 157.981 95.7531C158.112 95.699 158.247 95.6719 158.389 95.6719Z" fill="#032068"/>
<path d="M150.377 129.601C150.377 129.778 150.342 129.949 150.275 130.111C150.206 130.276 150.11 130.42 149.985 130.545C149.86 130.67 149.715 130.768 149.552 130.834C149.387 130.903 149.219 130.936 149.042 130.936C148.865 130.936 148.694 130.903 148.529 130.834C148.367 130.768 148.221 130.67 148.096 130.545C147.971 130.42 147.875 130.276 147.806 130.111C147.74 129.949 147.704 129.778 147.704 129.601C147.704 129.424 147.74 129.253 147.806 129.091C147.875 128.926 147.971 128.782 148.096 128.657C148.221 128.53 148.367 128.434 148.529 128.368C148.694 128.299 148.865 128.266 149.042 128.266C149.219 128.266 149.387 128.299 149.552 128.368C149.715 128.434 149.86 128.53 149.985 128.657C150.11 128.782 150.206 128.926 150.275 129.091C150.342 129.253 150.377 129.424 150.377 129.601Z" fill="#FFD700"/>
<path d="M156.79 129.601C156.79 129.778 156.755 129.949 156.688 130.111C156.619 130.276 156.523 130.42 156.398 130.545C156.273 130.67 156.128 130.768 155.965 130.834C155.801 130.903 155.632 130.936 155.453 130.936C155.276 130.936 155.107 130.903 154.942 130.834C154.78 130.768 154.634 130.67 154.509 130.545C154.384 130.42 154.288 130.276 154.219 130.111C154.153 129.949 154.117 129.778 154.117 129.601C154.117 129.424 154.153 129.253 154.219 129.091C154.288 128.926 154.384 128.782 154.509 128.657C154.634 128.53 154.78 128.434 154.942 128.368C155.107 128.299 155.276 128.266 155.453 128.266C155.632 128.266 155.801 128.299 155.965 128.368C156.128 128.434 156.273 128.53 156.398 128.657C156.523 128.782 156.619 128.926 156.688 129.091C156.755 129.253 156.79 129.424 156.79 129.601Z" fill="#FFD700"/>
<path d="M163.198 129.601C163.198 129.778 163.165 129.949 163.098 130.111C163.029 130.276 162.934 130.42 162.809 130.545C162.682 130.67 162.538 130.768 162.375 130.834C162.211 130.903 162.04 130.936 161.863 130.936C161.686 130.936 161.515 130.903 161.352 130.834C161.188 130.768 161.044 130.67 160.919 130.545C160.794 130.42 160.696 130.276 160.629 130.111C160.561 129.949 160.527 129.778 160.527 129.601C160.527 129.424 160.561 129.253 160.629 129.091C160.696 128.926 160.794 128.782 160.919 128.657C161.044 128.53 161.188 128.434 161.352 128.368C161.515 128.299 161.686 128.266 161.863 128.266C162.04 128.266 162.211 128.299 162.375 128.368C162.538 128.434 162.682 128.53 162.809 128.657C162.934 128.782 163.029 128.926 163.098 129.091C163.165 129.253 163.198 129.424 163.198 129.601Z" fill="#FFD700"/>
<path d="M169.61 129.601C169.61 129.778 169.577 129.949 169.508 130.111C169.442 130.276 169.344 130.42 169.219 130.545C169.094 130.67 168.95 130.768 168.785 130.834C168.623 130.903 168.452 130.936 168.275 130.936C168.098 130.936 167.927 130.903 167.762 130.834C167.6 130.768 167.456 130.67 167.329 130.545C167.204 130.42 167.108 130.276 167.039 130.111C166.973 129.949 166.939 129.778 166.939 129.601C166.939 129.424 166.973 129.253 167.039 129.091C167.108 128.926 167.204 128.782 167.329 128.657C167.456 128.53 167.6 128.434 167.762 128.368C167.927 128.299 168.098 128.266 168.275 128.266C168.452 128.266 168.623 128.299 168.785 128.368C168.95 128.434 169.094 128.53 169.219 128.657C169.344 128.782 169.442 128.926 169.508 129.091C169.577 129.253 169.61 129.424 169.61 129.601Z" fill="#FFD700"/>
<path d="M176.022 129.601C176.022 129.778 175.989 129.949 175.92 130.111C175.854 130.276 175.756 130.42 175.631 130.545C175.506 130.67 175.362 130.768 175.197 130.834C175.035 130.903 174.864 130.936 174.687 130.936C174.51 130.936 174.339 130.903 174.174 130.834C174.012 130.768 173.866 130.67 173.741 130.545C173.616 130.42 173.52 130.276 173.452 130.111C173.385 129.949 173.352 129.778 173.352 129.601C173.352 129.424 173.385 129.253 173.452 129.091C173.52 128.926 173.616 128.782 173.741 128.657C173.866 128.53 174.012 128.434 174.174 128.368C174.339 128.299 174.51 128.266 174.687 128.266C174.864 128.266 175.035 128.299 175.197 128.368C175.362 128.434 175.506 128.53 175.631 128.657C175.756 128.782 175.854 128.926 175.92 129.091C175.989 129.253 176.022 129.424 176.022 129.601Z" fill="#FFD700"/>
<path d="M150.373 109.83C150.373 110.007 150.34 110.176 150.271 110.34C150.204 110.503 150.106 110.648 149.981 110.773C149.856 110.898 149.713 110.994 149.548 111.063C149.385 111.13 149.215 111.165 149.038 111.165C148.86 111.165 148.69 111.13 148.527 111.063C148.363 110.994 148.219 110.898 148.094 110.773C147.969 110.648 147.871 110.503 147.804 110.34C147.735 110.176 147.702 110.007 147.702 109.83C147.702 109.653 147.735 109.482 147.804 109.317C147.871 109.155 147.969 109.009 148.094 108.884C148.219 108.759 148.363 108.663 148.527 108.594C148.69 108.528 148.86 108.492 149.038 108.492C149.215 108.492 149.385 108.528 149.548 108.594C149.713 108.663 149.856 108.759 149.981 108.884C150.106 109.009 150.204 109.155 150.271 109.317C150.34 109.482 150.373 109.653 150.373 109.83Z" fill="#FFD700"/>
<path d="M156.785 109.83C156.785 110.007 156.752 110.176 156.683 110.34C156.616 110.503 156.518 110.648 156.393 110.773C156.268 110.898 156.125 110.994 155.96 111.063C155.798 111.13 155.627 111.165 155.45 111.165C155.273 111.165 155.102 111.13 154.939 111.063C154.775 110.994 154.631 110.898 154.506 110.773C154.379 110.648 154.283 110.503 154.216 110.34C154.148 110.176 154.114 110.007 154.114 109.83C154.114 109.653 154.148 109.482 154.216 109.317C154.283 109.155 154.379 109.009 154.506 108.884C154.631 108.759 154.775 108.663 154.939 108.594C155.102 108.528 155.273 108.492 155.45 108.492C155.627 108.492 155.798 108.528 155.96 108.594C156.125 108.663 156.268 108.759 156.393 108.884C156.518 109.009 156.616 109.155 156.683 109.317C156.752 109.482 156.785 109.653 156.785 109.83Z" fill="#FFD700"/>
<path d="M163.198 109.83C163.198 110.007 163.163 110.176 163.096 110.34C163.027 110.503 162.932 110.648 162.807 110.773C162.682 110.898 162.536 110.994 162.373 111.063C162.209 111.13 162.038 111.165 161.861 111.165C161.684 111.165 161.515 111.13 161.35 111.063C161.188 110.994 161.042 110.898 160.917 110.773C160.792 110.648 160.696 110.503 160.627 110.34C160.561 110.176 160.525 110.007 160.525 109.83C160.525 109.653 160.561 109.482 160.627 109.317C160.696 109.155 160.792 109.009 160.917 108.884C161.042 108.759 161.188 108.663 161.35 108.594C161.515 108.528 161.684 108.492 161.861 108.492C162.038 108.492 162.209 108.528 162.373 108.594C162.536 108.663 162.682 108.759 162.807 108.884C162.932 109.009 163.027 109.155 163.096 109.317C163.163 109.482 163.198 109.653 163.198 109.83Z" fill="#FFD700"/>
<path d="M169.61 109.83C169.61 110.007 169.575 110.176 169.508 110.34C169.44 110.503 169.344 110.648 169.219 110.773C169.094 110.898 168.948 110.994 168.785 111.063C168.621 111.13 168.45 111.165 168.273 111.165C168.096 111.165 167.927 111.13 167.763 111.063C167.598 110.994 167.454 110.898 167.329 110.773C167.204 110.648 167.108 110.503 167.04 110.34C166.971 110.176 166.938 110.007 166.938 109.83C166.938 109.653 166.971 109.482 167.04 109.317C167.108 109.155 167.204 109.009 167.329 108.884C167.454 108.759 167.598 108.663 167.763 108.594C167.927 108.528 168.096 108.492 168.273 108.492C168.45 108.492 168.621 108.528 168.785 108.594C168.948 108.663 169.094 108.759 169.219 108.884C169.344 109.009 169.44 109.155 169.508 109.317C169.575 109.482 169.61 109.653 169.61 109.83Z" fill="#FFD700"/>
<path d="M176.02 109.83C176.02 110.007 175.987 110.176 175.918 110.34C175.852 110.503 175.754 110.648 175.629 110.773C175.504 110.898 175.36 110.994 175.195 111.063C175.033 111.13 174.862 111.165 174.685 111.165C174.508 111.165 174.337 111.13 174.175 111.063C174.01 110.994 173.866 110.898 173.741 110.773C173.614 110.648 173.518 110.503 173.452 110.34C173.383 110.176 173.35 110.007 173.35 109.83C173.35 109.653 173.383 109.482 173.452 109.317C173.518 109.155 173.614 109.009 173.741 108.884C173.866 108.759 174.01 108.663 174.175 108.594C174.337 108.528 174.508 108.492 174.685 108.492C174.862 108.492 175.033 108.528 175.195 108.594C175.36 108.663 175.504 108.759 175.629 108.884C175.754 109.009 175.852 109.155 175.918 109.317C175.987 109.482 176.02 109.653 176.02 109.83Z" fill="#FFD700"/>
<path d="M182.434 109.83C182.434 110.007 182.4 110.176 182.331 110.34C182.265 110.503 182.167 110.648 182.042 110.773C181.917 110.898 181.773 110.994 181.609 111.063C181.446 111.13 181.275 111.165 181.098 111.165C180.921 111.165 180.75 111.13 180.586 111.063C180.423 110.994 180.279 110.898 180.152 110.773C180.027 110.648 179.931 110.503 179.863 110.34C179.796 110.176 179.763 110.007 179.763 109.83C179.763 109.653 179.796 109.482 179.863 109.317C179.931 109.155 180.027 109.009 180.152 108.884C180.279 108.759 180.423 108.663 180.586 108.594C180.75 108.528 180.921 108.492 181.098 108.492C181.275 108.492 181.446 108.528 181.609 108.594C181.773 108.663 181.917 108.759 182.042 108.884C182.167 109.009 182.265 109.155 182.331 109.317C182.4 109.482 182.434 109.653 182.434 109.83Z" fill="#FFD700"/>
<path d="M182.434 129.601C182.434 129.778 182.4 129.949 182.334 130.111C182.265 130.276 182.169 130.42 182.044 130.545C181.917 130.67 181.773 130.768 181.611 130.834C181.446 130.903 181.275 130.936 181.098 130.936C180.921 130.936 180.75 130.903 180.588 130.834C180.423 130.768 180.279 130.67 180.154 130.545C180.029 130.42 179.931 130.276 179.865 130.111C179.796 129.949 179.763 129.778 179.763 129.601C179.763 129.424 179.796 129.253 179.865 129.091C179.931 128.926 180.029 128.782 180.154 128.657C180.279 128.53 180.423 128.434 180.588 128.368C180.75 128.299 180.921 128.266 181.098 128.266C181.275 128.266 181.446 128.299 181.611 128.368C181.773 128.434 181.917 128.53 182.044 128.657C182.169 128.782 182.265 128.926 182.334 129.091C182.4 129.253 182.434 129.424 182.434 129.601Z" fill="#FFD700"/>
<path d="M31.5754 102.192L30.4671 108.84C30.8379 110.317 32.6296 113.269 36.8463 113.269C41.0608 113.269 42.4838 110.686 42.6692 109.392L41.2817 104.132C45.165 103.3 44.8879 94.9921 43.5004 91.115C42.115 86.4067 34.9046 85.0213 30.4671 90.5609C27.14 95.2692 29.6358 100.623 31.5754 102.192Z" fill="#EFCB96"/>
<path d="M32.4107 100.812L31.2586 104.495C31.1607 104.806 30.7461 104.866 30.5565 104.601C21.8357 92.4513 25.5294 87.7826 28.5294 86.9659C29.6377 84.7493 32.9648 82.8118 38.5107 81.9805C44.0565 81.1493 46.5523 85.0263 45.9982 89.1805C45.5544 92.5034 39.5273 92.5972 36.5711 92.2263C36.5711 93.3347 34.9065 99.1513 34.3523 98.5972C33.7982 98.043 32.4107 94.7201 31.3002 96.6597C30.4148 98.2097 31.6711 100.074 32.4107 100.812Z" fill="#032068"/>
<path d="M36.8457 104.133C39.2853 104.574 40.8207 104.316 41.2832 104.133L41.8374 106.07C39.1749 106.293 37.3999 104.87 36.8457 104.133Z" fill="#032068"/>
<path d="M36.8457 111.612C41.0603 111.612 42.6707 109.395 43.2248 108.289C46.2748 108.289 58.754 111.058 63.4665 120.474C68.1811 129.889 69.5686 150.937 70.1228 154.262C70.5665 156.92 76.0394 171.431 78.7186 178.356H3.84567C0.0748336 178.356 3.38525 157.677 5.51025 147.337C4.49358 143.091 3.23733 132.327 6.3415 123.243C9.44775 114.16 23.5353 109.489 30.1915 108.289C30.4686 109.395 32.6311 111.612 36.8457 111.612Z" fill="#FFD700"/>
<path d="M27.696 150.663L25.4773 139.586L30.4689 149.834C39.0648 149.003 46.4606 148.357 48.771 148.448C46.7752 148.448 30.746 152.14 22.9814 153.988L27.696 150.663Z" fill="#032068"/>
<path fill-rule="evenodd" clip-rule="evenodd" d="M55.5645 116.284C55.5666 116.064 55.7479 115.889 55.9666 115.891L59.4624 115.93C59.6812 115.932 59.8583 116.111 59.8562 116.332L59.8374 117.986C59.8354 118.205 60.0124 118.384 60.2312 118.389L65.5666 118.447C65.7854 118.449 65.9624 118.63 65.9583 118.849L65.927 121.728C65.9249 121.947 65.7437 122.124 65.5249 122.122L60.1895 122.061C59.9708 122.059 59.7895 122.236 59.7874 122.455L59.7687 124.109C59.7666 124.328 59.9437 124.509 60.1624 124.511L63.0458 124.543C63.2666 124.545 63.4416 124.726 63.4395 124.945L63.4062 127.824C63.4041 128.043 63.2249 128.22 63.0041 128.218L60.1229 128.184C59.902 128.182 59.7229 128.359 59.7187 128.578L59.1687 177.995C59.1645 178.214 58.9854 178.391 58.7645 178.389L55.2708 178.349C55.0499 178.347 54.8729 178.166 54.877 177.947L55.5645 116.284Z" fill="#032068"/>
<path d="M5.51094 147.336C6.61927 156.476 12.7214 169.105 19.3755 171.984C28.2193 175.361 45.8464 165.336 51.2026 161.109C51.5151 160.848 51.813 160.596 52.0984 160.353C51.8568 160.576 51.5568 160.83 51.2026 161.109C44.3984 166.79 31.0547 176.307 19.6526 173.923C10.5026 171.707 5.32552 158.507 4.67969 151.49L5.51094 147.336Z" fill="#032068"/>
<path d="M27.9725 172.543C22.4267 167.447 15.3079 166.911 12.4434 167.28C13.2746 168.48 15.7704 171.214 19.0975 172.543C22.4267 173.872 26.4017 173.097 27.9725 172.543Z" fill="#032068"/>
<path d="M51.956 147.862C51.956 148.702 50.5727 149.96 49.8789 150.485L51.1768 157.308C51.5227 157.133 53.0997 156.416 54.5518 155.995C56.3706 155.47 60.0039 155.47 61.5622 153.897C63.1206 152.322 62.8602 146.024 61.5622 144.714C60.5247 143.664 56.9747 145.502 55.331 146.549V142.352C52.7352 143.402 51.956 146.812 51.956 147.862Z" fill="#EFCB96"/>
<path d="M62.0811 129.617C62.7456 136.707 64.2061 165.065 64.854 178.359H66.7956L62.0811 129.617Z" fill="#032068"/>
</g>
<defs>
<clipPath id="clip0_3365_74781">
<rect width="200" height="200" fill="white"/>
</clipPath>
</defs>
</svg>
